<?xml version="1.0" encoding="utf-8"?>
<!-- Generator: Adobe Illustrator 25.1.0, SVG Export Plug-In . SVG Version: 6.00 Build 0)  -->
<svg version="1.1" id="Layer_1" xmlns="http://www.w3.org/2000/svg" xmlns:xlink="http://www.w3.org/1999/xlink" x="0px" y="0px"
	 viewBox="0 0 566.1 595.3" style="enable-background:new 0 0 566.1 595.3;" xml:space="preserve">
<style type="text/css">
	.st0{fill-rule:evenodd;clip-rule:evenodd;fill:#414042;}
</style>
<g>
	<path class="st0" d="M393.8,289.5V170.8c0-0.4-0.3-0.7-0.7-0.7H164.1c-0.4,0-0.7,0.3-0.7,0.7v118.7c0,0.1,0,0.2,0.1,0.3
		c1,41.5,12.8,80.2,34,112c20.8,31.1,49.5,53,81,61.8c0.1,0.1,0.2,0.1,0.4,0c31.4-8.8,60.2-30.7,80.9-61.8c21.2-31.8,33-70.6,34-112
		C393.8,289.7,393.8,289.6,393.8,289.5 M389.2,288.8c0,0.2-0.1,0.4-0.1,0.6c-1.9,81.6-47.3,151.2-110.5,169.5
		c-63.1-18.3-108.6-87.9-110.5-169.5c0-0.2,0-0.4-0.1-0.6v-114h221.1V288.8z"/>
	<path class="st0" d="M278.4,430.9c0.1,0,0.3,0,0.5,0c49-18.3,84.3-76.8,85.8-142.2c0-0.5,0.1-0.9,0.1-1.2v-86.2
		c0-0.3-0.3-0.6-0.6-0.6h-171c-0.4,0-0.6,0.3-0.6,0.6v86.1c0,0.4,0,0.8,0,1.3C194.1,354.1,229.4,412.5,278.4,430.9 M278.6,425.9
		c-46.4-18.2-79.9-74.7-81.4-137.4c0-0.6-0.1-1-0.1-1.3c0,0,0-65.9,0-80c0.5,1.1,1,2.1,1.4,2.8c1.3,2,4.3,7.5,4.3,7.5
		s0.3,2.5-0.7,2.9c-1,0.3,1.3,1.7,2,2.7c0.7,1,2.3,3.9,3.6,4.2c1.3,0.4,1.7-1.3,0.7-2.9c-1-1.6-2.8-5.8-2.8-5.8s-0.4-2.3-1.4-4.6
		c-1-2.3-1.9-5.2-1.9-5.2s5.4,1.4,6.1,4.3c0.3,1.3,2,8.8,3.7,13.3c1,2.6,2.6,4.6,4.3,6.8c1.6,2.3,5.6,5.9,10.1,7.2
		c4.6,1.3,9.8-1.6,12.1,0c2.3,1.7,6.5,5.9,9.5,6.9c3,1,10.8,2.6,12.4,5.9c1.7,3.3,5.6,3.6,7.5,3.9c2,0.3,8.5,3,8.5,8.8l-5.2,10.8
		c0,0-3.9,4.2-4.6,8.1c-0.7,3.9-2.6,6.2,1.3,12.1c3.9,5.9,6.5,13.1,6.9,18.3c0.3,5.3,5.2,5.9,8.5,8.2c3.3,2.3,0,4.6-2,9.5
		c-1.9,4.9-1,15-2.9,21.6c-2,6.6-4.2,8.8-4.2,14c0,5.2,0.3,10.8-1.6,15.4c-2,4.6-0.7,8.8-1,13.7c-0.3,4.9,1,10.8,4.2,15
		c3.3,4.2,10.8,6.2,9.8-0.3c-1-6.6,0.3-15.1,4.2-19.3l3.9-4.2c0,0-0.7-6.2,3.2-8.8c3.9-2.7,6.6-4.6,4.3-5.6c-2.3-1,0-3.3,2.3-3.3
		c2.3,0,3.3,1,8.5-5.2c5.2-6.2,6.9-7.5,12.1-10.5c5.2-3,7.2-8.8,10.4-12.1c3.3-3.3,9.2-6.2,12.8-6.9c3.6-0.7,5.6-4.3,5.6-8.5
		c0-4.2-1.3-7.2,1.6-11.8c2.8-4.3,1.2-5.4,3.8-7.8C351.1,362.9,320,409.6,278.6,425.9 M360,287.2c0,0.3-0.1,0.8-0.1,1.4
		c-0.1,2.6-0.2,5.2-0.4,7.7c-2.4-2.3-6.3-3.9-8.6-6.6c-2.6-2.9-6.2-4.9-7.5-5.5c-1.3-0.7-2-1.9-5.6-1.3c-3.6,0.7-6.5,0-7.2-3.6
		c-0.6-3.6-0.3-7.2-3.9-9.2c-3.6-1.9-5.9-4.3-8.5-6.2c-2.6-2-5.2-5.5-6.2-5.9c-1-0.3-7.9,0.4-7.9,0.4s-3.9-3.6-9.8-2.3
		c0,0-3.6-5.5-7.5-2.6c-3.9,2.9-7.2,4.9-9.5,1.9c-2.3-2.9-6.2-1.6-8.8-1.3c-2.6,0.4-4.9-4.2-5.6-6.2c-0.6-1.9,0-4.9-1-4.9
		c-1,0-4.9,1.3-7.5-0.6c-2.6-2-1.3-3.9-0.3-5.6c1-1.6,2.3-8.1,1.6-9.5l-3-0.3c0,0-3.6-0.7-4.2,1.9c-0.7,2.6-5.2,5.2-8.8,4.2
		c-3.6-1-6.2-3.3-7.6-6.8c-1.3-3.6-1-5.9-0.3-7.8c0.6-2-2.3-5.5-3.2-6.5c-1-1-1,0.6-3-2.6c-1-1.8-2.5-3.2-3.7-4.2H360V287.2z"/>
	<path class="st0" d="M215.2,76c-4.6-2.2-9.3-1.2-11.2,1.1c-1.1,1.4-1.8,1.8-2.1,1.9c-1,0-7.4-0.2-10.1,3.3
		c-1.4,1.9-1.5,4.3-0.4,7.4c3.9,10.6,4.3,12.5,4.4,12.6c0,0.1,0.1,0.2,0.2,0.3c0.1,0.1,7,6.8,4.1,13.2c-3.3,7-2.6,8.7,1.2,10.7
		c3,1.6,4.4,3.5,4.4,10.3v0.5c0,4.8,0,9,2.2,11.3c1.2,1.1,2.7,1.7,4.9,1.7c1.6,0,2.9-0.6,3.8-1.9c3.2-3.9,2.2-13,1.2-17.2
		c-0.8-3.6-2.7-12.2,0.1-14.4c3.2-2.3,4.5-2.8,6.1-1c0.2,0.1,0.4,0.2,0.6,0.2c1.4-0.1,4.1-1.2,3.9-4.2c-0.1-1.2-0.4-2.2-0.7-2.8
		c0,0,0-0.1,0-0.1c0.2,0,0.6,0.1,1.2,0.3c1.9,0.4,3.8-0.1,4.8-1.4c1.1-1.3,1.2-3.1,0.5-4.8c-1.5-3.1-6.2-11-9.7-14.2l-1-1
		c-2-1.9-2-1.9-1.9-3.7C221.9,81,219.6,78.2,215.2,76 M224.1,110.4c0.1,0.2,0.2,0.5,0.2,0.7c-3.5-1.5-7,1.1-8.8,2.5
		c-4.6,3.4-3.3,11.3-1.7,18.4c1.1,5,1.3,11.8-0.4,13.8c-0.2,0.3-0.4,0.3-0.7,0.3c-1,0-1.7-0.2-2-0.5c-1.1-1.1-1.1-5-1.1-8.4v-0.5
		c0-7.7-1.7-11.3-6.6-13.9c-0.7-0.4-1-0.6-1.1-0.7c0-0.4,0.2-1.6,1.8-4.8c3.5-7.6-2.3-14.8-4.3-17c-0.5-1.6-1.6-4.9-4.3-12.1
		c-0.6-1.7-0.7-2.9-0.2-3.6c1.1-1.4,5-1.8,6.8-1.7c0.3,0,0.6,0,0.9-0.1c0.9-0.2,2.5-0.9,4.4-3.3c0.5-0.6,3.3-1.4,6.3,0
		c3.5,1.6,4.3,3.2,4.2,3.9c-0.3,3.6,0.6,4.5,3.2,7l1,1c2.9,2.7,7.4,10.1,8.8,13c0.1,0.3,0.1,0.5,0,0.6c0,0.1-0.3,0.1-0.8,0
		c-1.6-0.4-3.8-0.9-5.3,0.9C223.1,107.7,223.9,109.7,224.1,110.4"/>
	<path class="st0" d="M207,90.9c-1.9,0-3.5,1.6-3.5,3.5c0,2,1.6,3.5,3.5,3.5c2,0,3.5-1.5,3.5-3.5C210.5,92.5,208.9,90.9,207,90.9"/>
	<path class="st0" d="M170.5,92.5c-0.6,0.2-15.6,4.1-15.6,14c0,10,9.7,10.4,9.8,10.4c0.2,0,0.5-0.2,0.6-0.4c0.1-0.2,0.1-0.4-0.1-0.7
		c-1.4-1.7-2-3.2-1.7-4.3c0.2-1.3,1.7-2.1,3.2-3.1c1.8-1.1,3.8-2.2,3.5-4.6c-0.7-4.6,1.2-10.5,1.2-10.6c0.1-0.2,0-0.5-0.2-0.6
		C171,92.6,170.7,92.5,170.5,92.5 M159.7,110c-0.5-1-0.8-2.1-0.8-3.5c0-3.6,3.7-6.3,7.2-8c-0.2,2.1-0.3,3.9-0.1,5.6
		c-0.4,0.3-1.2,0.8-1.5,1C162.9,106,160.6,107.5,159.7,110"/>
	<path class="st0" d="M178.6,109.8c-6.3,3.3-10.4,5.9-10.4,5.9c-0.2,0.1-0.3,0.4-0.3,0.7c0,0.2,0.2,0.5,0.5,0.5
		c2,0.4,19.3,4.3,22.4,3.7c1.7-0.3,5.3-1.8,6.8-5.2c1.4-3.2,0.5-7.1-2.4-11.6c-5-9.9-8-17.1-8-17.2c-0.1-0.3-0.5-0.4-0.7-0.4
		c-0.2,0-16.2,3.8-13.9,19.2c0,0.3,0.3,0.6,0.6,0.6h5.7c0.9,0.2,2.2,0.8,2.2,1.4C181.1,107.8,181,108.5,178.6,109.8 M185,107.1
		c-0.4-3.4-4.2-4.6-5.3-4.9c-0.3-0.1-0.5-0.1-0.8-0.1h-2.6c0.3-6.3,5.1-9.5,8.3-10.9c1.3,2.9,3.7,8.1,6.9,14.6
		c0.1,0.1,0.2,0.2,0.2,0.4c1.5,2.3,3.1,5.4,2.1,7.8c-0.8,1.9-3,2.7-3.7,2.8c-1,0.1-5.8-0.6-12.3-1.9c0.9-0.5,1.8-1,2.7-1.4
		C181.7,112.7,185.5,110.7,185,107.1"/>
	<path class="st0" d="M206.3,151.1c-0.1-0.4-0.4-1-1.2-1.3l-3.8-2c0,0-0.1,0-0.1,0c-0.1,0-2.1-0.5-4.2,1.6l-17.2,12.5
		c-0.5,0.4-1.9,1.6-1.6,2.8c0.1,0.4,0.5,0.9,1.5,1.1c2.6,0.5,10.1,1.4,10.4,1.4c0.2,0,3.9,0.1,5.5-1.6c1.4-1.5,9.2-10.7,9.6-11.1
		C205.4,154.1,206.6,152.5,206.3,151.1 M192.8,162.7c-0.2,0.1-1.2,0.4-2.3,0.3l-4.8-0.6l13.7-9.9c0.1-0.1,0.2-0.3,0.4-0.4
		c0.2-0.2,0.3-0.3,0.5-0.3l1.3,0.6C198.7,155.8,193.8,161.5,192.8,162.7"/>
	<path class="st0" d="M199.1,167.7c2.7,0.3,6.5,0.7,6.8,0.7c0.4,0.1,2.7,0.3,4.6-3.1l4.6-8.7c0.2-0.3,0.9-1.5,0.5-2.6
		c-0.2-0.5-0.6-1.1-1.8-1.4c-2.5-0.6-3.3-0.9-3.3-0.9c-0.1,0-2.7-0.9-4.1,1.1c-1,1.6-8.4,10.5-8.5,10.6c-0.1,0.2-1.3,1.7-0.8,2.9
		C197.5,167.2,198.1,167.5,199.1,167.7 M206.3,164.4c-0.3,0-1.8-0.2-3.5-0.4c2-2.5,5.3-6.5,6.6-8.3c0.2,0.1,0.6,0.2,1.4,0.4
		c-1.1,2-3.9,7.3-3.9,7.3C206.7,164,206.4,164.3,206.3,164.4"/>
	<path class="st0" d="M216.5,168.7h5.4c1.2,0,3.5-0.9,3.5-4.1v-9.4c0-0.1,0-0.3-0.1-0.3c0-0.1-1.1-1.7-3.4-1.6c-1.9,0.2-3.3,0-3.3,0
		c-0.1,0-1.9,0-2.7,2.2c-0.6,1.7-3.6,8.4-3.6,8.4c0,0.1-0.8,1.7,0.1,3.1C213,168.1,214.5,168.7,216.5,168.7 M221.4,164.6
		L221.4,164.6l-4.9,0h-0.1c0.8-1.7,2.4-5.4,3.1-7.3c0.5,0,1.2,0,1.9,0V164.6z"/>
	<path class="st0" d="M241.8,167.9l4.9-0.4c0.2,0,0.9-0.1,1.4-0.7c0.4-0.7,0.4-1.6-0.1-2.9c-1.2-2.7-7-14.7-7.3-15.2
		c0,0,0,0-0.1-0.1c-0.1-0.2-1.2-1.6-2.5-1.1c0,0-0.1,0-0.1,0l-3.2,1.9c-0.8,0.3-1.8,1.4-1.1,3.4c0.9,2.4,4.1,12.8,4.1,12.9
		c0,0,0-0.1,0-0.1C237.9,166.6,238.9,168.1,241.8,167.9 M237.9,152.3c1.4,2.9,4,8.4,5.5,11.5c-0.8,0.1-2,0.2-2,0.2h0
		c-0.7-2.2-2.7-8.6-3.7-11.5L237.9,152.3z"/>
	<path class="st0" d="M228.4,168.7c1.5-0.1,6.8-0.2,6.8-0.2c0.1,0,1.1,0,1.7-0.9c0.4-0.6,0.5-1.4,0.1-2.4L233,153c0,0,0-0.1,0-0.1
		c-0.4-0.7-1.4-1.9-3-1.3c-1.3,0.5-3.2,1-3.2,1c-0.1,0-0.1,0-0.1,0.1c-0.2,0.1-0.9,0.6-0.9,2.3c0,1.4,0.4,10.8,0.5,11.2
		C226.2,167.1,226.8,168.8,228.4,168.7 M230.1,164.6c-0.2-3.3-0.4-7-0.4-8.7h0l2.9,8.6L230.1,164.6z"/>
	<path class="st0" d="M251.9,167c1.9-0.2,4.9-0.7,5.2-0.8c0.3,0,1.8-0.1,2.5-1.3c0.6-1,0.5-2.4-0.4-4.2
		c-2.3-4.4-10.7-17.6-11.2-18.4c-0.1-0.2-0.6-1-1.4-1.2c-0.6-0.1-1.2,0.1-1.9,0.8c0,0-3.1,2.9-3.1,2.9c-0.7,0.5-1.7,2-0.8,4
		c1.1,2.4,7.7,16,7.8,16.1c0,0,0,0,0,0C248.8,165.7,249.9,167.2,251.9,167 M244.6,147.5c0.3-0.3,0.8-0.7,1.2-1.1
		c2.3,3.6,7.8,12.5,9.7,16c-0.9,0.2-2.3,0.4-3.5,0.5C251.1,161,245.9,150.3,244.6,147.5"/>
	<path class="st0" d="M147.6,309.1c-8.7-4.1-16.8-0.7-16.8,7c0,17.8,36.5,15.1,30.5-15.6c-3.5-17.7-14.2-40.3-16.8-73.5
		c-2.7-33.2,15.1-44,15.1-44v-8.4c-28.1,13.7-22.6,74-14.2,102.1C153.9,304.7,147.6,309.1,147.6,309.1"/>
	<path class="st0" d="M426.9,316c0-7.7-8.2-11-16.8-7c0,0-6.3-4.3,2.1-32.4c8.4-28.1,14-88.4-14.2-102.1v8.4c0,0,17.8,10.8,15.2,44
		c-2.7,33.1-13.4,55.8-16.8,73.5C390.4,331.2,426.9,333.8,426.9,316"/>
	<path class="st0" d="M136.6,334.2l-17.1,14c-20-15.4-28.7,2.8-28.7,2.8c7.3-1.4,13.3,0.7,13.3,0.7c-15.4,4.2-11.6,14-11.6,14
		s15.8-9.4,22.4,1.4c8.6,14-2.1,24.8-2.1,24.8c26.2,0,17.5-35,17.5-35l23.1-22.7H136.6z"/>
	<path class="st0" d="M463.2,351c0,0-8.7-18.2-28.7-2.8l-17.1-14h-16.8l23.1,22.7c0,0-8.8,35,17.5,35c0,0-10.7-10.9-2.1-24.8
		c6.6-10.8,22.4-1.4,22.4-1.4s3.9-9.8-11.5-14C450,351.7,455.9,349.6,463.2,351"/>
	<path class="st0" d="M159.1,202.9l0.3-13.9c-0.5,2.7-2.7,4.7-5.2,6.3c-2.5,1.5-1.2,3.2-1.2,3.2
		C158.1,198.2,159.1,202.9,159.1,202.9"/>
	<path class="st0" d="M156.1,239c1,9.4,3.5,6,3.5,6s-0.7-15.6-1-18.7c-0.3-3-9.5-1.4-9.7,1.7c-0.2,3.2,1.8,16.7,1.8,16.7l2.7-0.5
		l-0.5-11.7C152.9,232.6,155.1,229.6,156.1,239"/>
	<path class="st0" d="M158.1,271.6c2.3,3.1,2.7-12.5,1.9-15.5c0,0-7-2.1-6.3,1.5C154.4,261.3,155.1,267.6,158.1,271.6"/>
	<path class="st0" d="M149.2,211.3c0,3.1,9.4,1.8,9.4,1.8v-5C158.6,208.2,149.2,206.7,149.2,211.3"/>
	<path class="st0" d="M158.6,220.8v-5c0,0-9.4-1.5-9.4,3.1C149.2,222.1,158.6,220.8,158.6,220.8"/>
	<path class="st0" d="M184.3,392.4c0-1.6-1.3-2.9-2.9-2.9c-1.6,0-2.9,1.3-2.9,2.9c0,1.6,1.3,2.9,2.9,2.9
		C183,395.3,184.3,394,184.3,392.4"/>
	<path class="st0" d="M405.7,360.8c-1.6,0-2.9,1.3-2.9,2.9c0,1.6,1.3,2.9,2.9,2.9c1.6,0,2.9-1.3,2.9-2.9
		C408.6,362.1,407.4,360.8,405.7,360.8"/>
	<path class="st0" d="M398.9,365.1c0-1.6-1.3-2.9-2.9-2.9c-1.6,0-2.9,1.3-2.9,2.9c0,1.6,1.3,2.9,2.9,2.9
		C397.6,367.9,398.9,366.6,398.9,365.1"/>
	<path class="st0" d="M390.1,366.4c0-1.6-1.3-2.9-2.9-2.9c-1.6,0-2.9,1.3-2.9,2.9c0,1.6,1.3,2.9,2.9,2.9
		C388.8,369.3,390.1,368.1,390.1,366.4"/>
	<path class="st0" d="M154.5,417.5l1.5-17.4c0,0-1.5-3.5-6.6-0.9l-0.9,13.2c0,0-3,5-9.3-0.6l0.9-13.5c0,0-2.1-2.9-6.2-0.9l-1.1,17.8
		C132.9,415.2,141.4,426.5,154.5,417.5"/>
	<path class="st0" d="M144.2,410.4c1,0.1,1.9-0.7,1.9-1.7l0.3-5.6c0-1-0.7-1.9-1.7-1.9c-1-0.1-1.9,0.7-1.9,1.7l-0.3,5.7
		C142.5,409.5,143.2,410.4,144.2,410.4"/>
	<path class="st0" d="M178.9,421.1l1.4-16.6c0,0-1.4-3.3-6.3-0.9l-0.9,12.6c0,0-2.9,4.7-8.9-0.6l0.9-13c0,0-2-2.7-5.9-0.8l-1,17
		C158.3,418.9,166.3,429.7,178.9,421.1"/>
	<path class="st0" d="M169.1,414.3c0.9,0.1,1.8-0.7,1.8-1.6l0.3-5.5c0.1-0.9-0.7-1.8-1.6-1.8c-0.9,0-1.8,0.7-1.8,1.6l-0.3,5.4
		C167.4,413.4,168.1,414.3,169.1,414.3"/>
	<path class="st0" d="M200.7,422.8l0.6-8.7c0,0-0.8-4.4-5-1.3l-0.6,3.9c0,0-2.3,3.1-1.9-2.3l0.4-5.4c0,0-1.3-1.7-2.7,0.6l-0.2,6.9
		c0,0-1.2,1.2-3.3-0.2l0.8-9.8c0,0-1.3-4.1-5.4-1l-0.8,15.2C182.6,420.7,188.6,431.3,200.7,422.8"/>
	<path class="st0" d="M144.4,386c0-1.6-1.3-2.9-2.9-2.9c-1.6,0-2.9,1.3-2.9,2.9c0,1.6,1.3,2.9,2.9,2.9
		C143.1,388.9,144.4,387.6,144.4,386"/>
	<path class="st0" d="M158.7,388.1c0-1.6-1.3-2.9-2.9-2.9c-1.6,0-2.9,1.3-2.9,2.9c0,1.6,1.3,2.9,2.9,2.9
		C157.4,391,158.7,389.8,158.7,388.1"/>
	<path class="st0" d="M170.1,390.1c0-1.6-1.3-2.9-2.9-2.9c-1.6,0-2.9,1.3-2.9,2.9c0,1.6,1.3,2.9,2.9,2.9
		C168.8,393,170.1,391.7,170.1,390.1"/>
	<path class="st0" d="M156,339.9l0.2,10.2l6.5,5.6C162.7,355.8,166.2,343,156,339.9"/>
	<path class="st0" d="M165.6,366.6c-0.8,1-2.1,2.9-2.9-0.6c-0.8-3.5-3.7-3.1-5.2-3.1c-1.5,0-3.7,6.4-5,1.9c-1.3-4.4-2.1-6.7-7.5-5.7
		v10.6l26.8,6c0,0,0-7.1-1.2-8.3C169.5,366.2,166.4,365.6,165.6,366.6"/>
	<path class="st0" d="M172.8,380.2c0,0-18.3-5.6-27.2-6.2l-0.2,4.2l27.9,6.6C173.3,384.9,174.3,383.9,172.8,380.2"/>
	<path class="st0" d="M422.5,415.2l-1-17.8c-4-2-6.2,0.9-6.2,0.9l0.9,13.5c-6.3,5.6-9.3,0.6-9.3,0.6l-0.9-13.2
		c-5.1-2.6-6.6,0.9-6.6,0.9l1.5,17.4C414.1,426.5,422.5,415.2,422.5,415.2"/>
	<path class="st0" d="M409.3,408.7c0.1,1,0.9,1.8,1.9,1.7c1,0,1.8-0.9,1.7-1.9l-0.3-5.7c0-0.9-0.9-1.8-1.9-1.7c-1,0-1.8,0.9-1.7,1.9
		L409.3,408.7z"/>
	<path class="st0" d="M397.2,418.9l-1-17c-3.9-1.9-5.9,0.8-5.9,0.8l0.8,13c-6,5.3-8.9,0.6-8.9,0.6l-0.9-12.6
		c-4.9-2.4-6.3,0.9-6.3,0.9l1.4,16.6C389.2,429.7,397.2,418.9,397.2,418.9"/>
	<path class="st0" d="M385.9,405.5c-0.9,0.1-1.7,0.9-1.6,1.8l0.3,5.5c0,0.9,0.8,1.7,1.8,1.6c1,0,1.7-0.9,1.6-1.8l-0.3-5.4
		C387.6,406.1,386.8,405.4,385.9,405.5"/>
	<path class="st0" d="M359.8,416.7l-0.6-3.9c-4.3-3.1-5,1.3-5,1.3l0.6,8.7c12.2,8.5,18.1-2.1,18.1-2.1l-0.8-15.2
		c-4.1-3.1-5.4,1-5.4,1l0.8,9.8c-2.1,1.3-3.3,0.2-3.3,0.2l-0.2-6.9c-1.3-2.3-2.7-0.6-2.7-0.6l0.4,5.4
		C362.1,419.8,359.8,416.7,359.8,416.7"/>
	<path class="st0" d="M66.5,79.7c2-0.8,3.8-2.5,2.7-5.3l-8.7-22.1l-2.3,0.9l8.4,21.3c0.7,1.8,0.4,2.6-0.8,3.1
		c-1.2,0.4-2,0.1-2.7-1.7l-8.4-21.3l-2.3,0.9L61,77.7C62.1,80.5,64.6,80.4,66.5,79.7"/>
	<polygon class="st0" points="76.6,75.9 69.7,52.5 69.8,52.5 79.7,75 83.2,73.9 75.4,47.7 73.2,48.3 79.9,70.8 79.9,70.8 70.2,49.2 
		66.7,50.2 74.5,76.5 	"/>
	<polygon class="st0" points="89.9,72.2 83.2,45.6 80.8,46.3 87.5,72.9 	"/>
	<polygon class="st0" points="99.5,70 96.6,42.5 94.2,43.1 97.2,67.9 97.1,68 89.3,44.2 86.8,44.7 96,70.8 	"/>
	<polygon class="st0" points="112.1,67.4 111.7,65.3 107.6,66.1 105.5,55.3 109.4,54.5 109,52.4 105.1,53.2 103.2,43.4 107.2,42.6 
		106.8,40.5 100.3,41.8 105.6,68.7 	"/>
	<path class="st0" d="M118.6,66.2l-2.3-13L118,53c1.2-0.2,2,0,2.2,1.3l2,11.4l2.5-0.4l-2-11.6c-0.3-1.9-1.5-2.2-3.3-2v-0.1
		c1.9-0.4,2.6-1.3,2.2-3.4l-1.2-6.8c-0.4-2.7-2-2.9-4.4-2.5l-4.6,0.8l4.7,27L118.6,66.2z M114.2,41.3l1.4-0.2
		c1.3-0.2,2.1-0.1,2.4,1.5l1.1,6.1c0.3,1.6-0.4,2.1-1.5,2.3l-1.7,0.3L114.2,41.3z"/>
	<path class="st0" d="M125.8,44.4c0.2,1.4,0.7,2.2,1.6,3.3l4.6,5.8c0.7,0.9,1,1.6,1.1,2.5l0.6,3.8c0.2,1.3-0.2,2.1-1.2,2.3
		c-1.1,0.2-1.7-0.5-1.9-1.8l-0.6-3.6l-2.5,0.4l0.6,3.7c0.4,2.7,1.9,3.8,4.7,3.3c2.5-0.4,3.8-2,3.4-4.6l-0.7-4.3
		c-0.2-1.2-0.7-2.3-1.4-3.2l-5-6.2c-0.5-0.6-0.8-1.5-0.9-2.3l-0.4-2.9c-0.2-1.1,0-1.9,1.1-2c1.2-0.2,1.5,0.6,1.7,1.6l0.5,3.3
		l2.5-0.4l-0.5-3.5c-0.4-2.5-1.7-3.6-4.5-3.2c-2.5,0.4-3.7,1.9-3.3,4.6L125.8,44.4z"/>
	<polygon class="st0" points="143.2,62.4 139.4,35.2 136.9,35.6 140.7,62.7 	"/>
	<path class="st0" d="M152.3,61.2c3.4-0.4,4-2.2,3.7-4.9l-2.3-18.4c-0.4-2.7-1.4-4.3-4.8-3.9l-4.3,0.5l3.4,27.2L152.3,61.2z
		 M148.7,36.1c1.6-0.2,2.2,0.3,2.4,1.9l2.3,18.8c0.2,1.5-0.2,2.2-1.9,2.4l-1.3,0.2l-2.9-23L148.7,36.1z"/>
	<path class="st0" d="M162.4,52.3l4.4-0.5l1.9,7.4l2.5-0.3l-7-26.8l-3.4,0.4l-1,27.7l2.5-0.2L162.4,52.3z M162.6,34.3L162.6,34.3
		l3.7,15.5l-3.9,0.4L162.6,34.3z"/>
	<path class="st0" d="M178.9,58.3c3.4-0.3,4.1-2.1,3.8-4.8L180.9,35c-0.2-2.7-1.2-4.4-4.6-4l-4.3,0.4l2.6,27.3L178.9,58.3z
		 M176,33.1c1.7-0.2,2.2,0.3,2.4,1.9l1.8,18.9c0.1,1.6-0.3,2.1-2,2.3l-1.3,0.1l-2.2-23.1L176,33.1z"/>
	<polygon class="st0" points="196.2,56.8 194.4,32.5 194.5,32.4 199.4,56.5 203,56.3 201,28.9 198.8,29.1 200.5,52.5 200.4,52.5 
		195.6,29.3 192,29.6 194,57 	"/>
	<path class="st0" d="M209.4,48.3l4.4-0.3l1.5,7.5l2.5-0.2l-5.7-27.1l-3.4,0.2l-2.3,27.6l2.5-0.2L209.4,48.3z M210.5,30.2
		L210.5,30.2l2.9,15.6l-3.9,0.2L210.5,30.2z"/>
	<path class="st0" d="M224.7,55.2c2.6-0.1,3.8-1.7,3.7-4l-0.2-3.9l-2.5,0.1l0.2,3.8c0.1,1.2-0.3,1.7-1.3,1.8c-1,0-1.5-0.5-1.5-1.7
		l-1-20.1c-0.1-1.2,0.3-1.8,1.3-1.8c1,0,1.4,0.5,1.5,1.7l0.2,3.5l2.5-0.1l-0.2-3.6c-0.1-2.3-1.5-3.8-4.1-3.6c-2.6,0.1-3.8,1.7-3.7,4
		l1,20.3C220.7,53.9,222.1,55.4,224.7,55.2"/>
	<polygon class="st0" points="234.8,54.6 233.7,27.1 231.1,27.2 232.3,54.7 	"/>
	<path class="st0" d="M244,54.5c3.4-0.1,4.4-2.1,4.3-4.8l-0.6-18.6c-0.1-2.7-1.2-4.6-4.5-4.5c-3.4,0.1-4.4,2.1-4.3,4.8l0.6,18.6
		C239.5,52.7,240.6,54.6,244,54.5 M243.2,28.7c1.6,0,1.9,1,2,2.5l0.6,18.5c0,1.5-0.2,2.6-1.8,2.6c-1.6,0-1.9-1-2-2.5l-0.6-18.5
		C241.3,29.8,241.6,28.7,243.2,28.7"/>
	<polygon class="st0" points="255.3,53.9 254.8,29.5 254.9,29.5 258.5,53.9 262.1,53.8 261.6,26.4 259.4,26.4 259.8,49.9 
		259.7,49.9 256.2,26.5 252.5,26.5 253.1,54 	"/>
	<path class="st0" d="M268.8,46.1l4.4,0l1.1,7.6h2.5l-4.2-27.4l-3.4,0l-3.8,27.5l2.5,0L268.8,46.1z M270.9,28.2L270.9,28.2L273,44
		l-3.9,0L270.9,28.2z"/>
	<polygon class="st0" points="286.9,51.6 282.8,51.6 282.9,26.3 280.4,26.3 280.3,53.7 286.9,53.7 	"/>
	<path class="st0" d="M298.6,46.3l4.4,0.1l0.9,7.6l2.5,0.1L303,26.5l-3.4-0.1L295,53.8l2.5,0L298.6,46.3z M301.2,28.4L301.2,28.4
		l1.6,15.9l-3.9-0.1L301.2,28.4z"/>
	<path class="st0" d="M313.8,54.5c2.2,0.1,4.5-0.7,4.6-3.7l0.8-23.8l-2.5-0.1l-0.7,22.9c-0.1,2-0.7,2.6-2,2.5
		c-1.3,0-1.9-0.7-1.8-2.6l0.7-22.9l-2.5-0.1l-0.8,23.8C309.5,53.5,311.7,54.4,313.8,54.5"/>
	<polygon class="st0" points="324.7,54.7 327.3,54.8 328.3,29.5 331.2,29.6 331.3,27.5 323.1,27.1 323,29.3 325.8,29.4 	"/>
	<path class="st0" d="M338.1,55.5c3.3,0.2,4.5-1.7,4.6-4.4l1-18.6c0.2-2.7-0.7-4.7-4.2-4.9c-3.4-0.2-4.5,1.7-4.7,4.4l-1,18.6
		C333.8,53.4,334.8,55.4,338.1,55.5 M336.5,50.8l1-18.4c0.1-1.5,0.5-2.6,2.1-2.5c1.6,0.1,1.8,1.2,1.8,2.7l-1,18.4
		c-0.1,1.5-0.4,2.5-2,2.5C336.7,53.3,336.4,52.3,336.5,50.8"/>
	<polygon class="st0" points="351,31.6 351,31.7 352.5,56.2 356.1,56.4 358,29.1 355.8,28.9 354.2,52.4 354.1,52.4 352.6,28.7 
		349,28.5 347.1,55.8 349.3,56 	"/>
	<path class="st0" d="M365,57.4c3.4,0.3,4.5-1.6,4.8-4.3l1.5-18.6c0.2-2.7-0.7-4.7-4-5c-3.4-0.3-4.6,1.6-4.8,4.2L361,52.4
		C360.8,55.1,361.6,57.1,365,57.4 M363.5,52.5l1.5-18.4c0.1-1.6,0.5-2.6,2.1-2.5c1.6,0.1,1.8,1.2,1.7,2.7l-1.5,18.4
		c-0.2,1.5-0.5,2.5-2.1,2.4C363.6,55.1,363.4,54.1,363.5,52.5"/>
	<polygon class="st0" points="378.6,32.9 378.7,32.9 379.1,58.4 382.2,58.7 387.5,33.8 387.6,33.8 385.2,59 387.3,59.2 390,31.9 
		386.2,31.5 381,55.7 380.9,55.7 380.5,30.9 376.6,30.6 374,57.9 376.2,58.1 	"/>
	<path class="st0" d="M394.9,52.4l4.4,0.5l0.1,7.6l2.5,0.3L401,33.1l-3.4-0.4l-7.1,26.8l2.5,0.3L394.9,52.4z M399.1,34.8L399.1,34.8
		l0.2,15.9l-3.9-0.5L399.1,34.8z"/>
	<polygon class="st0" points="437,40.3 437,40.3 435.5,65.8 438.6,66.3 445.8,41.9 445.9,41.9 441.5,66.8 443.7,67.2 448.4,40.2 
		444.6,39.5 437.6,63.2 437.5,63.2 439,38.5 435.2,37.9 430.4,64.9 432.6,65.3 	"/>
	<polygon class="st0" points="454.6,69.4 455,67.3 450.9,66.5 453.1,55.7 457,56.4 457.5,54.4 453.6,53.6 455.6,43.8 459.6,44.6 
		460.1,42.5 453.5,41.2 448,68.1 	"/>
	<polygon class="st0" points="456.9,69.9 459.4,70.5 464.3,59.8 464.4,59.8 464.2,71.6 466.6,72.1 466.3,57.9 472.6,45.4 
		470.1,44.8 465.5,55.1 465.4,55.1 465.8,43.8 463.4,43.2 463.5,57.2 	"/>
	<polygon class="st0" points="472,73.6 479,47 476.5,46.4 469.5,72.9 	"/>
	<path class="st0" d="M480.1,76.1c2.5,0.8,4.2-0.2,4.9-2.5l1.2-3.8l-2.4-0.7l-1.1,3.7c-0.4,1.1-0.9,1.5-1.8,1.2
		c-1-0.3-1.2-0.9-0.8-2.1l5.9-19.3c0.3-1.1,0.9-1.6,1.9-1.3c0.9,0.3,1.2,1,0.8,2.1l-1,3.4l2.4,0.7l1.1-3.5c0.7-2.2-0.1-4-2.6-4.8
		c-2.5-0.8-4.2,0.3-4.9,2.5l-5.9,19.4C476.8,73.6,477.6,75.4,480.1,76.1"/>
	<path class="st0" d="M490.9,80c3.1,1.3,4.8-0.1,5.8-2.6l7-17.3c1-2.5,0.8-4.7-2.3-5.9c-3.1-1.3-4.8,0.1-5.8,2.6l-7,17.3
		C487.6,76.5,487.8,78.7,490.9,80 M491,74.9l6.9-17.1c0.6-1.4,1.2-2.3,2.7-1.7c1.5,0.6,1.4,1.7,0.8,3.1l-6.9,17.1
		c-0.6,1.4-1.3,2.3-2.7,1.7C490.3,77.4,490.4,76.3,491,74.9"/>
	<path class="st0" d="M40,72.9c4.6,6.7,5.8,8.4,5.8,13.9l0,1.6c0,4.1-0.1,8.9,3.1,12.2c2.7,2.7,7.1,4,13.5,4
		c4.8,0,11.5-1.3,19.2-2.7c11.9-2.3,26.5-5.1,40-3.9c-3.1,3.1-13.2,11.2-34,8.9c-20.5-2.2-42.4-3-50,7.7c-4.1,5.8-3.4,14.5,2,25.9
		c0.1,0.3,0.5,0.4,0.8,0.3c0.2-0.1,15.8-5.6,12.3-23c6.1,0.6,12.1,2.5,18.5,4.7c1.3,0.4,2.7,0.9,4.1,1.3c-12.8,3.6-23.1,9-23.1,14.6
		c0,3.5,3.9,4.8,13.1,8.9c9.6,4.4,18.8,7.8,27.1,11.9c23.7,11.7,40.9,21.9,43.5,19.4c3.4-3.3-53.4-25.9-40-45.3
		c7.5-10.9,19.9,3.6,9.7,5.9c-10.2,2.3,14.7,27.5,44,36.2c0,0,5.1-5.4,9.2-7.5c0,0,4.4-3.3-2.1-5c-6.5-1.7-46.6-14.1-30-29.4
		c4.9-4.5,5.4-7.7,3.2-9.9c5.7-2.2,10.4-5,13.8-8.4c3.4-3.4,5.1-7.1,5.1-10.9c0-10.5-13.1-24.9-18-29.9c38.2-6,88.7-10.4,147.3-10.4
		c60.5,0,112.3,4.7,150.9,11c-4.7,4.8-18.2,19.5-18.2,30.1c0,3.8,1.8,7.5,5.2,10.9c2.4,2.3,5.5,4.5,9,6.2c-4.2,2.5-6.5,5.3-6.5,7.5
		c0,9.1,8.1,11.9,8.1,11.9c1,10.4-23.6,21.5-30.4,24.3c1.6,0.6,4.9,2,8.5,4.4c23.6-6.8,30-19.1,34.8-25.4c5.2-6.9-8.3-3.2-8.3-10.1
		c0-6.9,20.3-11.9,16.2,6.9c-3.7,17-28.1,27.7-38.6,31.5c1.4,1.2,2.8,2.5,4.1,3.9c0.6,1,2,3.1,3,2.8c1.3-0.4,0.3-4.1,2.3-3.6
		c2,0.4,3.5,1.2,4.4-0.7c0.9-2,0.7-4,2.4-2.8c1.7,1.2,2,2.2,3.6,1.6c1.6-0.7-1.4-5.2,2.3-4.1c3.7,1.1,4.3-0.9,3.5-2.8
		c-0.8-1.9,1.6-0.8,3.9,0.7c2.3,1.5,2.7-1.5,1.4-3.4c-1.3-1.9,0.4-3.3,2.5-1.2c2.2,2.1,6.1,1.5,3.2-1.6c-2.9-3,0.5-5.6,3.6-3.2
		c3.1,2.4,2.8,0.9,1-2c-1.7-2.9-0.3-4,3.6-1.5c3.9,2.5,6.6,1.6,2.3-1.8c-4.2-3.3-2.5-5.6,1.9-3.1c4.4,2.5,9.7,3.7,4.8-0.6
		c-4.8-4.3-6.3-7.3-0.6-4.3c5.7,3,10.4,2.4,1.6-3c-8.8-5.4,4.6-0.4,7.7,2.2c3.1,2.6,3.7-1.6-2.3-4.9c-6-3.3-2.4-4.4,5.5-0.4
		c7.9,4,7.9,0.3,1.4-2.2c-6.6-2.5-9.2-7.2-1.2-3.1c8.1,4.1,16.3,4.7,8.1,0.4c-3.7-1.9-6.3-3.5-7.5-4.6c2.4-0.8,5.5-0.1,11.1,3.8
		c10.7,7.5,0.4,15.6-8.8,19.2c-13.6,5.2-19.1,10.5-33.6,20.9c-8.6,6.1-19.9,8-27.6,8.5c0.8,1.5,1.5,3.1,2,4.8
		c12.5-0.4,27-4.7,35.8-10.1c11.7-7.1,31.7-18.5,46.2-21.9c11.3-2.7,21.9-8.6,4.7-20.9c-5.9-4.3-11.8-7.7-17.5-10.3
		c0.3-0.1,0.6-0.2,1-0.3c6.5-2.1,12.4-4.1,18.5-4.6c-3.5,17.4,12.2,23,12.3,23c0.3,0.1,0.7,0,0.8-0.3c5.4-11.3,6.1-20,2-25.8
		c-7.6-10.8-29.5-10-50-7.7c-23,2.5-33-7.7-34.8-9.8c2.6-0.3,5.5-0.3,8.7-0.1c6.4,0.5,13.7,1.7,20.9,3c16.8,2.8,34.1,5.8,42-0.2
		c2.5-1.9,3.9-4.6,4.3-8.1c0.8-7.4,4.5-13.7,7.8-19.3c3.5-5.8,6.4-10.8,5-15.3c-1-3-3.9-5.6-9-7.8c-22.6-9.7-57-18.6-97-24.9
		c-44.3-6.9-93.9-10.6-143.6-10.6c-95.3,0-184,12-231.5,31.4c-0.4,0.1-9.5,3.3-11.8,10c-1.1,3.1-0.5,6.5,1.9,10
		C37.3,68.8,38.8,71.1,40,72.9 M46.7,49.9c0.1,0,0.1,0,0.2-0.1c47-19.2,135.1-31.2,230-31.2c116.4,0,201.5,19,239,35.2
		c3.9,1.7,6.2,3.5,6.8,5.3c0.9,2.8-1.6,7.1-4.6,12.1c-3.5,5.9-7.5,12.7-8.4,20.9c-0.2,2.3-1.1,4.1-2.7,5.3c-0.1,0-0.1,0.1-0.2,0.1
		c-0.2-1.3-1-2.6-2.3-3.9c-15.9-15.9-112.6-33.6-226-33.6c-58.1,0-115.3,4.5-161.2,12.8C96.9,76.5,80,80.7,68.3,85.1
		c-9.8,3.7-15.7,7.4-17.6,10.9c-0.9-2.1-0.8-4.9-0.8-7.5l0-1.7c0-6.7-1.6-9.1-6.5-16.2c-1.3-1.8-2.8-4-4.6-6.8
		c-1.6-2.4-2.1-4.6-1.4-6.5C38.7,53.4,44.7,50.6,46.7,49.9 M468,96.9c-7.2-1.2-14.7-2.5-21.3-3c-16.5-1.3-26.3,4.7-31.5,9.7
		c1.4-8,12.3-20.7,19.3-27.6c36.7,6.4,60.5,14.1,66.9,20.6c0.9,0.9,1.2,1.6,1.2,1.9c0,0.3-0.1,0.6-0.2,0.9
		C494.4,101.3,480.5,98.9,468,96.9 M433.1,99.6l1.6,0.9c2.1,2.5,13.2,13.9,38.3,11.2c10.4-1.1,33.4-3.6,43.3,3.3
		c-10.3-1.5-19.3,1.4-28.7,4.6c-1.8,0.6-3.6,1.2-5.4,1.7c-22-8.4-41.1-6-52.4-1.2c-4.7-2-8.3-4.4-10.7-6.8c-1.5-1.5-2.5-3-3.2-4.5
		c2.6-3.2,7.9-7.9,16.9-9.9C432.7,99.1,432.8,99.4,433.1,99.6 M511.5,118.5c2.9,0.1,5.8,0.5,8.9,1.4c1.5,4,0.8,9.6-2.1,16.6
		C514.4,134.1,509.1,128.9,511.5,118.5 M144.4,100.7C125.8,89.5,100,94.4,80.9,98c-7.5,1.4-14,2.6-18.4,2.6c-3.4,0-6-0.4-8-1.2
		c-0.3-0.4-0.5-0.8-0.5-1c0-0.3,0.3-1,1.3-1.9c6.6-6.6,31.7-14.8,70.5-21.2C132.2,81.7,141.8,92.7,144.4,100.7 M125.4,121.2
		c-8-2.5-22.1-2.1-30-1.2c-4.1,0.5-8.3,1.1-12.3,2c-3.6-1-7.1-2.1-10.5-3.2c-9.4-3.1-18.4-6.1-28.7-4.6c9.9-6.9,32.9-4.4,43.4-3.2
		c25.1,2.7,36.2-8.6,38.3-11.2l1.7-1c0,0,0,0,0.1-0.1c6.4,1.1,12.5,3.3,17.7,7.1C143.9,111.7,136.8,117.6,125.4,121.2 M42,135.8
		c-3-7-3.7-12.6-2.1-16.7c3.1-0.9,6-1.3,8.9-1.4C51.1,128.1,45.8,133.4,42,135.8"/>
	<path class="st0" d="M292.7,153.6c-0.2,0-0.4,0-0.5,0.2c-0.1,0.1-0.2,0.3-0.2,0.5c0,0.1,1.1,13.2,16,13.2c13,0,24.8-10.5,27.5-13.1
		c1.8,2.9,8.8,13.4,15,12.7c2.6-0.3,4.7-2.6,6.3-6.7c1.9,2,7.2,6.8,13.9,6.4c5.4-0.4,10.4-4.2,14.8-11.3c0.1-0.2,0.1-0.5,0-0.8
		c-0.2-0.2-0.5-0.3-0.7-0.2c-0.1,0-12.5,3.8-20.2-1.8c-4.2-3.1-6.3-8.4-6.3-15.7c0-11.2,0.7-17.6,2-21.7c3.6,1.9,7.9,3.4,12.7,3.6
		c13.9,0.3,16.5-8.1,16.6-8.5c0.1-0.2,0-0.5-0.1-0.6c-0.1-0.2-0.4-0.3-0.6-0.2c-4.6,0.7-8,0.2-9.9-0.3c6.4-2.1,11-2.2,13.4-0.2
		c2.6,2.2,1.8,6.2,1.8,6.2c-0.1,0.3,0.1,0.6,0.3,0.7c0.2,0.1,0.6,0.1,0.8-0.2c4.9-5.5,6.8-9.9,5.5-13.7c-2.1-6.5-12.8-9.2-22.7-11.3
		c-14.2-3-19.5-18.5-19.5-18.6c0-0.2-0.2-0.4-0.4-0.4c-0.2-0.1-0.4-0.1-0.6,0.1c-3.5,2-6.2,4.1-8,6.6l-9.6-10.8
		c-0.2-0.1-0.3-0.2-0.5-0.2c-0.2,0-0.4,0.1-0.5,0.3c-0.2,0.2-3.9,5.1-1.7,12.7c-1.9-2-4.4-5.3-4.5-9c0-0.2-0.2-0.5-0.4-0.5
		c-0.2-0.1-0.5,0-0.7,0.1c-0.1,0.1-9.8,9.1-0.2,22.6c-2.1,0.8-9.7,3-24.7-1.2c-0.2-0.1-0.4-0.1-0.5,0.1c-0.2,0.1-0.3,0.2-0.3,0.4
		c0,0.2-1.1,5.1,2.2,9.5c2.8,3.7,8,5.6,15.2,6c-2.4,1.8-9.1,5.1-22.5,1.2c-0.2-0.1-0.5,0-0.6,0.2c-0.2,0.1-0.3,0.4-0.2,0.6
		c0,0.2,4.1,16.1,24.5,13.4c-3.9,3.5-15.5,12.3-30.5,7.9c-0.2-0.1-0.4,0-0.6,0.1c-0.2,0.1-0.3,0.3-0.3,0.5c0,0.4,0.3,9.3,7.1,13
		c5.9,3.2,14.6,1.5,26-5.2C324.7,144.5,318,156.1,292.7,153.6 M327.5,109.9c0.8-1,1-2.4,0.4-3.5c-0.6-1.2-1.7-1.9-3-1.9
		c-6.7-0.1-11.4-1.7-13.7-4.5c-0.6-0.8-1-1.6-1.3-2.5c16.1,3.6,23.3-0.1,24-0.5c0.8-0.5,1.4-1.3,1.6-2.2c0.2-0.9,0-1.9-0.6-2.7
		c-4-5.3-4.3-9.6-3.7-12.5c2.3,3.6,5.2,6,5.3,6.1c1.2,1,2.9,1,4.2,0.1c1.2-0.9,1.6-2.6,1-4.1c-1.1-2.4-1.5-4.8-1.2-7l6.7,7.5
		c-0.3,0.7-0.5,1.4-0.7,2.1c-1.1,4.4,0.5,8,1.2,9.3c-11.2,7.2-11.5,14-11,17c-1.4,2.1-5.9,7.9-13.7,9.5c-8.3,0.8-13.1-1.9-15.9-4.9
		C321.6,116.9,327.3,110.2,327.5,109.9 M356.3,77.4c1.1,2.2,2.7,4.9,4.9,7.5l-5.5,0.5l-3.5-4C353.1,80.1,354.5,78.7,356.3,77.4
		 M396.2,107.6c-0.4-0.6-0.8-1.1-1.3-1.5c-3.9-3.3-10.2-3.3-19.2,0.1c-1.3,0.5-2.1,1.6-2.2,3c-0.1,1.3,0.7,2.6,1.9,3.2
		c0.2,0.1,2,0.9,5.1,1.4c-2.1,0.8-4.6,1.2-7.6,1.1c-4.1-0.1-7.9-1.5-11.2-3.2c1.3-2,2.9-3.1,4.8-4.5c0.6-0.4,1.2-0.8,1.8-1.3
		c3.2-2.4,5.8-7.2,7.7-11.3c0.4,0.1,0.7,0.2,1.1,0.3c5.4,1.1,18.2,3.8,19.7,8.6C397.2,104.5,397,105.9,396.2,107.6 M376.8,159.8
		c-2.1,1.8-4.2,2.8-6.4,3c-6.1,0.4-11.2-5.7-11.3-5.8c-0.4-0.6-1.1-0.9-1.8-1.1c-0.9-1.8-2.1-4.7-2.7-8.3c0.4,0,0.8-0.1,1.1-0.1
		c1.3,3.6,3.4,6.4,6.2,8.5C366.6,159.3,372.3,159.9,376.8,159.8 M350.3,85.5l2.6,2.9c0.6,0.7,1.6,1.1,2.5,1.1c0,0,2-0.2,4.4-0.4
		c-0.5,1.5-1.2,2.6-2.2,3.2c-1.7,1-4,0.7-5.9,0.1c-0.1-0.2-0.2-0.5-0.4-0.7C351.3,91.8,349.7,89,350.3,85.5 M365.9,102.6
		c-0.6,0.4-1.2,0.9-1.7,1.3c-2.4,1.7-4.3,3.2-5.9,5.6c-0.6-0.4-1.2-0.8-1.7-1.3c1.6-2.6,4.3-4.9,7.9-6.7c4.4-2.2,4.9-6.9,4.7-9.8
		c0.9,0.5,1.9,1,2.9,1.4C370.5,96.8,368.3,100.8,365.9,102.6 M339.7,152.1c-1-0.3-2.4-2.1-1.9-9.8c2.7-1.5,4.9-4,6.3-5.8
		c-0.4,3.8,0.4,6.7,2.4,8.6c0.4,0.5,0.9,0.8,1.4,1.1C345.3,149.3,341.7,152.9,339.7,152.1 M339.1,126.4
		C339.1,126.4,339.1,126.4,339.1,126.4c0.3-0.1,4-1.4,6.5-4c0,1,0.1,2.2,0.4,3.5c-5.5,9.6-10.5,13.3-13.3,13.5
		C332.5,138.1,335.5,132.2,339.1,126.4 M354.5,142.8c-2.1,0.5-3.7,0.2-4.6-0.8c-2.3-2.5-1.1-9.1,0.2-13.4c1.3-0.3,2.8-0.8,4.2-1.4
		c-0.2,2.8-0.2,6.1-0.2,9.8C354.1,139,354.3,141,354.5,142.8 M350.6,96.3c2.5,0.8,5.7,1.2,8.5-0.2c1.8-0.9,4-2.9,4.9-7.2
		c0.2,0,0.5,0,0.6,0l0.3,1l0.1,0.3c0,0,1.4,6.1-2.3,7.9c-3.9,1.9-7.1,4.6-9.1,7.6c-1.2-1.1-1.8-1.9-1.9-1.9c-0.9-1.1-2.4-1.4-3.7-1
		c-1.1,0.4-1.8,1.3-2.1,2.4c-0.2,0.2-1.2,1.4-5.3,2.5c0.4-2.4,2.3-6.5,9.7-11.2C350.4,96.4,350.5,96.4,350.6,96.3 M351,149.9
		c0.7,2.3,1.7,5.3,2.7,7.4c-0.1,0.2-0.3,0.5-0.4,0.8c-1,3-2.2,4.8-3.2,5c-2,0.2-5.5-3-8.5-7C345.3,154.7,348.4,153,351,149.9
		 M350.3,123.8c-0.4-1.7-1.5-6.4-0.8-10.6c0-0.3-0.1-0.6-0.3-0.7c-0.3-0.1-0.6-0.1-0.8,0.1c0,0-4,4.1-7.4,6.6
		c-0.5-0.8-1.4-3-1.2-6.9c0.1-0.2,0.2-0.3,0.2-0.5c6.4-1.5,8.6-3.5,9.4-4.8c1.2,1.3,3.7,3.7,7.1,6.1c-0.8,2.2-1.4,4.9-1.8,8.5
		C353.8,122.4,352.3,123.2,350.3,123.8 M328.9,125.1c0.6-0.7,0.9-1.5,0.9-2.3c1.4-0.6,3.5-1.7,5.6-4.1c0.3,1,0.6,2.3,1.1,3.7
		c-3,5.6-7.1,10.5-9.5,13.1c-0.5,0-1,0.2-1.4,0.5c-10.6,6.4-18.7,8.5-23.4,5.9c-2.2-1.2-3.4-3.3-4.1-5.2
		C316.2,139,328.4,125.7,328.9,125.1 M329.4,143c1.2,0.5,2.5,0.8,3.8,0.7c0.1,1.3,0.4,3.9,1.1,6.5c-0.4,0.2-0.8,0.4-1.1,0.7
		c-0.1,0.1-12.5,12.5-25.2,12.5c-6.4,0-9.4-2.9-10.8-5.6C319,158.6,326.8,148.6,329.4,143"/>
	<path class="st0" d="M73.8,406.2c0.3-1.9,0.5-4.1-0.8-4.7c-1.2-0.5-2.3,1-2.7,1.4c0,0-0.1,0.1-0.1,0.1v0c-0.1,0.2-1.8,3.6-7.3,3.4
		c-3.6-0.1-7.4,1.6-9.3,4.4c-1.3,1.8-1.5,3.9-0.7,5.7c1.5,3.4,4.1,5.3,5.4,4.8c0.3-0.1,1.2-0.5,0.8-2.1l-0.2-0.7
		c-0.2-0.7-0.4-1.6-0.4-1.9c0.2,0,0.5,0.1,1.1,0.5c2,1.1,4,1.2,5.1,0.3c0.4-0.4,1.1-1.2,0.7-3c-0.3-0.8-0.6-1.5-0.8-2
		c-0.2-0.4-0.5-0.9-0.4-1.1c0.1-0.1,0.4-0.4,2.5-0.5C71.8,410.5,73.1,410.2,73.8,406.2 M59.7,412.2c-0.3-0.1-0.5-0.1-0.8-0.1
		c0.2-0.1,0.5-0.3,0.7-0.4C59.7,411.9,59.7,412,59.7,412.2"/>
	<path class="st0" d="M530.7,401.1c-1.3-0.4-2-1-2.8-1.6c-1.2-1-2.5-2.1-5.9-2.2c-1.6,0-2.7,0.5-3.4,1.5c-1.1,1.6-0.6,4.6,1.5,9.1
		c0.5,1.1,0.6,1.8,0.6,2.2c-2.3-0.7-4.6-1.4-6.8-2.4c-1.5-0.6-2.8-0.6-3.9,0.2c-2.6,1.8-3,7.5-2.8,12.9c-6.3,0.3-11.4,4.8-15.1,8.3
		c0-2.3-0.2-5-1.5-6.3c-0.9-0.9-2.5-1.3-4.7-1.2c-2.1,0.1-4.6,0.9-7.2,2.5c0-1.2,0-2.7-0.3-3.8c-0.3-0.9-1.2-1.7-2.6-2
		c-1.7-0.4-4.5-0.3-6.7,1.8c-1,0.9-1.3,2.1-1,3.3c0.5,2.2,2.9,4.3,5.2,5.5c-0.3,0.4-0.6,0.7-0.9,1.2c-1.2,1.7-1.6,3.4-1,5
		c1,3,5,5,9.3,6.5c-5.4,5.2-11.9,9.6-18.8,7.9c-1.1-1.3-8-8.5-21.8-5.1l-1.5,0.3c-13.6,3.3-24.4,5.8-29.8,19.2
		c-1.6,4.1-3.1,6-4.5,7.8c-3.3,4.2-5.9,7.5-8.1,32.7c-2.2,0.7-12.1,3.9-18.6,7.8c-1.3,0.6-2.8,0.7-4.3,0.8
		c-3.4,0.2-7.2,0.5-12.3,6.2c-2.9,2.2-4.5,1.9-6.2,1.6c-1.8-0.3-3.7-0.6-6.6,1.6c-1.9,1-3.9,1.2-5,1.3c0.9-2.2,3.6-8.1,9-9.5
		c5.3-1.4,18.2-5.5,23.5-12.3c0-0.1,0.1-0.1,0.1-0.1c1.9-4,4.7-6.2,7-7.9c2.8-2.1,5.2-3.9,3.5-8c-1.2-2.8,0-6,1.2-9.2
		c1.1-3.1,2.2-6.2,0.4-8.3c2.3-0.7,7.2-2.4,8.6-4.9c0.4-0.8,0.6-1.6,0.3-2.3c-0.3-1.2,0.1-3.2,0.6-5.3c0.7-3.4,1.5-6.9-0.2-9
		c-0.8-1-2-1.4-3.6-1.5c-0.4-0.9-1.8-3.3-4.2-3.8c-1.9-0.5-3.9,0.4-6.1,2.3c-1.1-0.4-4.2-1.3-6.2,0.1c-1.3,0.9-2,2.6-1.9,5l-4.2,6.7
		c-1.5-0.4-6.4-0.8-15.2,4.8l-3.6,2.2c-8.7,5.4-15.6,9.7-17.8,20c-1.1,5.2-2,8-2.6,9.5c-0.6-0.5-1.2-0.9-1.9-1.3
		c-2.1-1.2-4.3-2.2-6.4-3.1c-3.9-1.7-7.3-3.2-9.4-5.9c-4.5-5.9-10.8-6.3-18.9-1.3c-9.2,5.8-16.3,4.8-26.1,0.8
		c-1.7-0.7-3.6-1.4-5.6-2.2c-10.5-4-24.9-9.5-30-16.8c-1-1.4-1.9-2.8-2.7-4.1c-4.5-6.9-8.1-12.4-17.6-12.7c-0.9-0.4-7-2.7-13.8,2.3
		c0,0-0.1,0.1-0.1,0.2c0,0-0.2,0.3-0.6,0.3c-0.4,0.1-0.8-0.2-1.4-0.7c-2.3-2.3-4.3-2.9-8.9,0.5c-0.4,0.3-8.1,6.2-10.9,12
		c-0.4-0.2-0.7-0.5-0.8-1c-3.5-8.1-7.5-13-11.5-14.1c-3.4-0.9-6-4-8.8-7.3c-1.7-2-3.4-4.1-5.4-5.8c-1.6-1.4-3.2-2-4.9-1.9
		c-3,0.3-5.4,3.4-7.9,6.7l-0.8,1c-2.7,3.4-7.2,7-11.3,10c-1.7,1.3-3.2,2.5-4.6,3.6c-0.1,0.1-0.2,0.2-0.3,0.3
		c-1.9-1.2-3.1-2.5-3.5-3.7c-1.9-5.8-7-12.3-9.4-15.3c0.7-3.7,0.4-7.4-1.9-10.2c2.8,0,4.9-1.7,6.7-5.4c0.8-1.7,0.9-3.1,0.2-4.3
		c-1.1-2-4.3-3-9.5-3.2c-4.3-0.2-8.1,3.4-10.1,5.6c-2.5-0.1-5.4,0.4-9.1,1.7c0.4-1.9,0.1-3.7-1.5-5c-5.9-5-15.3,4-19.8,8.4
		c-3.4,3.2-3.7,6.8-3.4,9.1h-0.1c-0.3,0.1-0.6,0.2-0.8,0.3c-0.1,0-0.8-0.2-1.3-0.3c-1.3-0.3-3.2-0.8-5.4-1
		c-0.9-3.7-3.2-10.4-8.4-10.3c-0.7,0-1.4,0.1-2.2,0.2c0.1-0.5,0.2-1,0.2-1.5c0-1.7-0.7-3.3-1.8-4.5c-1.2-1.2-2.8-1.8-4.4-1.8
		c-3.5,0-6.3,2.8-6.3,6.3c0,1.7,0.7,3.3,1.8,4.4c0.4,0.3,0.7,0.6,1.2,0.9c-1.3,1-2.3,2.1-2.8,3.4c-0.5,1.2-0.6,3.1,1.5,5.1
		c1.8,1.7,3.9,3.7,6.4,5.9c-0.7,1.8-1.3,3.8-1.6,6.1c0,0.1,0,0.2,0,0.3c-1.2,0.4-3.4,1.6-3.4,3.5c0,1.7,1.6,3.2,2.9,4.2
		c0,3,0.1,6.2,0.5,9.1c-0.8,1.1-1.6,2.8-0.4,3.8c0.5,0.4,1.3,0.9,2.1,1.3c0.3,0.5,0.6,1,1,1.3c1.4,1.4,2.6,2.9,3.8,4.2
		c0.3,0.3,0.5,0.6,0.8,0.9c-0.4,1.9-0.8,4.9,1.2,5.4c1.2,0.3,2.8,0.3,4.4,0.2c1.1,0.8,2.3,1.7,3.7,2.6c1.6,1,3.4,2.1,5,3.3
		c-0.1,1.9,0,4.9,2.1,4.5c1.4-0.2,2.5-0.4,3.3-0.5c4.5,3.5,8,6.8,8,7.8c-1.5,2.1-7.4,8-10,8c-1.1,0-2,0.5-2.6,1.4
		c-1.2,1.8-1.2,5.1,0,8.5c-1.3,1.1-5,4.6-3.6,7.3c0.4,0.9,1.2,1.7,2,2.6c1,1,2.1,2.2,1.9,2.9c-0.1,0.4-0.7,0.9-1.7,1.2
		c-3.1,1.1-7.3,3.1-8.3,6.8c-0.7,2.7,0.3,5.7,3.2,9.1c0.1,0.1,0.2,0.2,0.2,0.3l-1.6,2c0,0-5.7,1.4-3.8,5.7c1.9,4.3,9.2,4.6,7.8-2.2
		l1.6-1.8c3.2,2.2,6.6,3,9.4,2c3-1,4.8-3.8,5.1-7.6c3.1,1.3,14.3,5.6,25.1,5.1c1.2,1.1,3.2,2.5,5.1,1.8c1.6-0.6,2.4-1.7,2.8-2.8
		c2.4,0.1,8,0.3,13.1-0.2c0.7,1,1.9,2,4,1.9c2.2-0.1,2.5-1.6,2.3-2.8c1.2-0.4,2.2-0.7,2.9-1.2c2-1.3,7.5-2,15.6-2.2
		c0.2,0.4,0.4,0.9,0.7,1.4c2.5,4.2,3.9,5.7,4.6,6.4c0.4,0.5,0.4,0.5,0.2,1.4c-0.3,1.2-0.5,2.5,0.2,3.6c0.7,1,2.1,1.6,4.3,1.9h0.1
		c4.4,0.6,7.2,0.9,9.3,4.2l0.2,0.4c1,1.7,1.8,2.9,3.1,3.1c1.3,0.3,2.8-0.3,5.8-2.2c4.8-3,9.5-0.2,10.3,0.3c0.5,0.8,2.7,4.2,5.2,4
		c1.5-0.2,2.7-1.6,3.6-4.4c1.4-0.8,2.7-0.8,4.2-0.8c2.4,0,5.3-0.1,10.3-2.7c0.1-0.1,10.2-6.7,16.2-9.9c0.9,1.6,1.3,3.4,1.6,5.1
		c0.9,5.4-21.3,15.6-12.7,29.1c1.1,1.7,2.2,1.2,2.2,1.2s-1.8-4.5,1-7.7c2.4-2.6,14.3,0.9,20.5-6.6c1.8,7.8,10.2,8.4,10.3,8.4
		c0.4,0,0.6-0.2,0.7-0.6l2.8-19.9c1.1,2.6,2.7,4.4,4.7,5.5c2.5,1.3,4.9,1,5.9,0.8c6.2,10,14.4,7.3,15.5,6.9c3.8,0,5.7-0.7,6.1-2
		c0.1-0.6,0.6-2.4-5.9-6.2c-0.7-0.4-0.9-0.8-0.8-1c0-0.3,0.5-0.6,1.4-0.7c2.5-0.4,7.9,1.2,12.3,9.6c6.1,11.7,18.5,8.2,18.6,8.1
		c0.3-0.1,0.5-0.3,0.5-0.6c0-0.3-0.2-0.5-0.4-0.6c-2.8-1-3.7-4.1-4-6c7.3,5.6,14,8.1,20.1,7.3c6.8-0.9,10.2-5.5,10.4-5.6
		c0.2-0.2,0.2-0.5,0-0.7c-0.1-0.2-0.4-0.3-0.7-0.3c-7.7,2.1-11.1-0.9-14.8-5.1c3.3-0.6,8.7-3.1,15.4-12c1.5-0.5,11.6-3.2,21.6,0
		c1,0.3,2.1,0.7,3.4,1.1c12.3,4.1,38,12.7,55.2-0.7c11.4-9,14.2-14.7,14.6-17.9c0.1-0.8,0-1.4-0.1-1.9c2.1,0.4,3.6,0.5,3.8,0.5
		c0.1,0,0.2,0,0.3-0.1c3.7,0.6,8.9,1.6,13.2,3.3c0.9,0.3,1.9,0.7,3.1,1.2c-1,1.3-2.8,4.4-0.2,5.7c3.3,1.6,11.4-3.3,11.4,1.3
		c0,4.6,3.9,3.9,10.6,1c0,0,3.2-0.8,3.6,1.1c0.3,1.8,2,3.8,4.6,3.4c1.2-0.2,3-2.2,4.8-4c2.3-0.1,4.5-0.3,6.7-0.7
		c2.2,1.7,4.2,2.2,5.6,1c0.8-0.7,1.2-2.1,1.4-3.3c3-1.6,5.3-3.8,6.6-6.5c1.9-3.8,1.6-7.9,1.1-10.3c0.8-0.8,2.1-2.5,2.5-4.9
		c0.5-3.2-3-2.7-5.3-6c-0.8-1.6-2-3.3-3.6-4.8c-0.5-0.9-0.9-2.1-1.1-4.1c-0.4-4.8-5.4-6.7-6.3-1.1c-12-5.9-28.6-5.1-39.7-2.4
		c-3.1,0.7-6.3,1.7-9.4,2.6c-9.7,2.9-18.8,5.6-23.2,1.1c0.4-1.6,3.1-8.7,16.8-13.5c9.8-3.6,32.9-13.1,37.2-27.5
		c4.6,0.2,37.9,1.6,45.9-9.8c7.1-10.1,13.4-19.1,6.4-27.9c3.2-2.6,5.8-5.3,7.6-8c1.3-2,1.6-3.6,1.1-5c-0.5-1.4-1.8-2.5-3.6-3.3
		c0.5-0.9,1.9-2.1,5.4-2.9c2.8-0.6,3.2-2.1,3.3-2.9C536,404.4,533.3,401.9,530.7,401.1 M104.1,413.7c3.2,0.1,4.7,0.5,5.4,0.8
		c-1.7,3.4-2.2,3.6-5.7,2c-1.1-0.5-2.1-1-3.2-1.5C101.9,414.2,103.1,413.7,104.1,413.7 M474.3,423.7c-0.5-0.3-0.9-0.7-1.2-1
		c0.4-0.2,0.8-0.3,1.1-0.2C474.3,422.8,474.3,423.3,474.3,423.7 M496.9,524.7c0,0.6,0.1,1.2,0.2,1.6c0,0,1.7,4.8-0.3,8.8
		c-1.3,2.6-4.1,4.6-8.2,5.7c-13.4,3.9-31.1-3.1-40.6-6.8c-1.3-0.5-2.6-1-3.7-1.4c-8.5-3.1-19.1-4.2-19.6-4.2c-0.4,0-0.8,0-1.3,0.1
		c-6.5-1.6-7.2-3.5-7.2-8.2c0-3.8,2.5-5.4,4.5-6.1c5.7,0.6,12.6-1.5,19.7-3.6c3-0.9,6.1-1.8,9.2-2.6c11.1-2.6,27.9-3.4,38.9,3.4
		C497.2,516.7,496.9,524.4,496.9,524.7 M421,534.3c0.1,0.6-0.2,5.2-12.8,15.2c-15.3,12-38.5,4.2-51,0l-0.2-0.1
		c-1.2-0.4-2.3-0.8-3.3-1.1c-10.5-3.4-20.9-1-23.7-0.2c0.2-3,0.3-7.7-0.6-10.5c-1-3.2,2.3-6.1,4.3-7.7c3.9-0.5,6.8-1.2,8.9-2.1
		c1.3,0,4-0.1,6.9-1.4c-1,1.9-2.7,5.5-0.7,6.1c2.6,0.8,8.6,2.1,6.4-7.5c2,0.2,4.9,0.1,8.5-2.6c0.2-0.2,0.4-0.4,0.6-0.6
		c3.8-4.4,6.2-4.6,9.2-4.8c1.8-0.1,3.8-0.3,6-1.3c0.1-0.1,0.2-0.1,0.3-0.2c6.8-4,17.9-7.4,18-7.4c0.1,0,0.2,0,0.2-0.1
		c2.8,1.5,8.5,4,13.9,1.7c0.1,0,0.1,0.1,0.1,0.2c0.9,1,1.9,1.8,3,2.4c-2,1.9-3.3,4.6-3.7,8.3c-0.3,2.6,0.4,4.9,2.1,6.8
		c1.8,2,4.3,3.4,6.8,4.3C420.4,532.7,420.6,533.5,421,534.3 M298,564.1c-1.4,0.7-2.2,2-2.2,3.5c0,1.3,0.2,2.9,0.6,4.2
		c-2.8-0.9-5-2.8-6.5-5.8c-5.2-9.9-12.4-12.7-17-12c-0.9,0.1-1.7,0.4-2.4,0.8c0.7-1.2,1.2-2.6,1.4-4.3c2.2,0.3,8.9,1,12.3-2.3
		c0.4,0.3,0.7,0.5,1.2,0.7c0.4,0.2,0.7,0.2,1.2,0.3c3.9,2.1,16.4,8.9,21.2,13.7c1.1,1.1,2.2,2.3,3.2,3.5c1.6,1.9,3.3,3.8,5.5,5.5
		c-4.3-0.6-9.1-3-14.2-7.2C301,563.6,299.4,563.5,298,564.1 M230,564.9C230,564.9,230,564.9,230,564.9
		C230,564.9,230,564.9,230,564.9 M230.4,563.6c0,0,0.1,0,0.1,0.1C230.5,563.7,230.5,563.7,230.4,563.6 M237.2,565.1
		c0-0.6-0.2-1.1-0.5-1.6c0.9-3.6,2.2-10.2,1.9-13.5c-0.2-1.6-0.8-2.6-1.7-3c-1.6-0.7-2.7,0.6-2.9,0.8c-0.2,0.1,2.3,15.8-7.4,19.2
		c-2.8,1-6.6,1-9.5,1.6c-2.2,0.5-4.4,1.5-4.6,1.5c1.1-7.9,14.2-10.4,14.2-18.8c0-6.8-6.5-13.2-7.8-14.4c-0.4-0.4-8.5-8.8-10-17.7
		c0.2-0.2,0.2-0.4,0.2-0.6c-0.2-0.7-0.3-1.5-0.5-2.2c0-1,0.1-2,0.3-3c2-9.1,8.5-18.9,19.8-16.5c0.6,0.6,3.5,1,5.7,3.5
		c1.2,1.7,1.9,3.6,1.9,4.4c0.5,4.5-5.8,5.8-5.9,5.7c-0.1-0.1,0.1-8.9-4.8-8.9c-4.1,0-8.4,4-9.5,8.2c-1.2,4.7,1.2,8.7,6.4,10.7
		c1.8,0.6,3.3,1.3,4.7,2c2.5,1.1,4.7,2,7.1,2.7c-0.2,0-0.4,0-0.7,0c-0.3,0-0.5,0.2-0.6,0.5c0,0.1-0.3,1,0.4,2.1
		c1,1.6,3.4,2.6,7.2,3.1c7.9,1,16,3.2,16,11.1c0,6.2-3.3,8.9-4.8,9.7c-0.8-2.7-4.2-11.3-15.2-15.3c-13.5-4.9-18.4-9.4-20.4-18.8
		c-0.1-0.2-0.2-0.4-0.4-0.4c-0.2-0.1-2.3-1.1-3.7-0.2c-0.8,0.6-1,1.7-0.7,3.4c0.1,0.4,2.6,10.6,12.2,15.2c1.7,0.9,3.6,1.7,5.4,2.5
		c6.7,2.9,13.1,5.7,15.8,11.1c-1.1,0.5-1.9,1.6-2.1,2.9l-2.6,18.1C238.4,569,237.4,567.3,237.2,565.1 M185.3,558.4
		c-0.2-0.2-0.3-0.5-0.5-0.7c-0.3-0.5-0.7-0.9-1.1-1.3c-0.3-0.2-7.7-5.4-15.5-0.5c-1,0.6-1.7,1-2.2,1.3c-0.2-0.2-0.3-0.5-0.5-0.8
		l-0.3-0.4c-3.2-5.1-8-5.7-12.6-6.3c0,0-0.1,0-0.1,0c-0.2,0-0.5-0.1-0.7-0.1c0.5-2,0.3-3.5-1.4-5.3c-0.6-0.6-1.8-1.9-4-5.7
		c-3.7-6.3,2.1-15.8,4.1-19c1.8-2.9,13.1-10,23.4-9.8c8.4,0.1,23.4,5.5,29.9,7.9c0.7,11.6,11.1,22.1,11.6,22.6c0,0,1,0.9,2.1,2.2
		c-5.8,3.3-14.6,8.9-15.8,9.8c-3.9,2-6,2-8.1,2c-1.9,0-4.1,0.1-6.6,1.6c-0.9,0.5-1.5,1.3-1.8,2.2
		C185.4,558.2,185.4,558.3,185.3,558.4 M101.6,539.6c-12.2,3.6-29.5-4-29.7-4.1c-1.2-0.5-2.6-0.4-3.7,0.3c-1.1,0.7-1.8,1.9-1.8,3.2
		c0,1.4-0.4,3.7-2.1,4.4c-1.9,0.6-5.4-0.5-8.7-4.6c-1.7-2.1-2.6-4-2.3-5c0.2-0.8,1.4-2.1,5.5-3.7c2.5-0.9,4-2.4,4.5-4.4
		c0.7-3.1-1.5-5.5-3-7.1c-0.3-0.3-0.6-0.6-0.8-0.9c0.4-0.7,1.3-1.7,2.3-2.5c1.3-1.1,1.8-2.9,1.2-4.5c-0.8-2-0.8-3.5-0.7-4.2
		c5.6-1,12.6-9.8,12.6-9.9c0.7-1,1-2.3,0.7-3.6c-1.2-5.9-20.3-17.8-20.5-17.9c-4.1-2.5-6.4-5.1-9-8.1c-1.2-1.5-2.5-3-4.1-4.5
		c-1.7-1.7-2.3-11.1-1.3-19.7c0.6-4.3,2-7.3,4.3-8.8c3.7-2.6,9.3-1.2,12-0.5c1.4,0.3,2.2,0.5,3.3,0.3c0.5-0.1,0.9-0.2,1.4-0.4
		c0.9-0.3,1.3-0.4,1.4-0.4c0,0,0,0,0,0c0.9,1.2,1,1.6,1.2,2.4c0.3,0.8,0.6,1.8,1.5,3.4c1,1.9,3.6,5.4,6.6,9.4
		c2.1,2.9,4.3,5.9,5.7,7.9c2.1,3.1,6,10.8,11,21.6c0.7,1.5,0.1,8.1-1.3,13.9c-0.2,0.7-0.1,1.5,0.1,2.2c-0.8,2.5-1.6,5.9-0.4,6.7
		c1.6,1,3.6,0.4,5.7-4.4c0.6-0.3,1.2-0.7,1.7-1.4v0c0-0.1,1.2-1.2,10.7,0.7l0.5,0.1c3.6,0.7,9.6,3.2,11.9,5.3
		c0.9,0.8,2.4,2.4,4.2,4.2c4.1,4.1,9.7,9.8,13.6,12.8c3,2.2,6,3.4,8.5,4.1c-1.8,3.7-3.7,8.5-3.4,13.3c-8.5,0.2-14.3,1.2-17,2.9
		c-2.5,1.6-12.8,2-20.9,1.5C102.5,539.4,102.1,539.5,101.6,539.6 M48,427.9c-1.9,0.3-3.8,0.9-5.5,2.1c-0.9,0.6-1.6,1.3-2.3,2.1
		c-2.2-1.9-4.1-3.7-5.6-5.2c-0.2-0.2-0.3-0.2-0.3-0.3c0.9-1.6,6.1-4.3,10.2-4.4C45.6,422.1,47.1,424.6,48,427.9 M66.9,423.1
		c9.5-9.1,12.7-9,13.8-8.2c0.2,0.4-0.2,2-3.1,7c-1.8,3-3.4,5.8-3.3,8.4c-2.4,0.9-4.4,1.8-5.9,2.4c-0.3-0.6-0.7-1.4-1.5-2.5
		c-0.6-0.8-1.3-1.3-1.9-1.6C64.6,427.4,64.6,425.2,66.9,423.1 M141.5,440.2l0.8-1c1.3-1.8,3.6-4.8,4.7-4.9c0.2,0,0.7,0.2,1.4,0.8
		c1.7,1.5,3.3,3.4,4.9,5.2c3.1,3.8,6.3,7.6,11.1,8.9c0.7,0.2,4.2,1.6,8.4,11.5c0.8,1.8,2.2,3.1,4.2,3.7c0.2,1.3,0.8,2.5,2,3.4
		c4.9,4.1,9.3,4.6,13.3,5.1c3,0.4,5.7,0.7,7.7,2.7c5.7,5.7,11,9.5,15.9,11.4c2.2,0.9,5.1,3,7.6,5.1c-9.1,0.9-16.4,8.4-19,20.3
		c0,0.2-0.1,0.3-0.1,0.5c-3.3-1.2-7.9-2.9-12.7-4.3c0.2-0.9-0.3-2.4-1-4.4c-1.4-3.5-6.4-7.7-5.4-4.1c0,0,0.5,1.8,0.2,4
		c-0.1,1,0,2,0.4,2.9c-3.6-0.9-7.1-1.6-10.1-1.8c0-0.7-0.4-1.7-1.2-2.8c-2-2.7-2.5-2.2-2.7-0.9c0,0-0.8,2.2,0,3.7
		c-4.5,0.3-9,1.7-13,3.5c0.4-1.2,0-3.2-0.4-4.8c-0.6-2.3-0.9-4.7-1.8-3.1c0,0-2.2,2.3-1.8,5.4c0.3,2.1,0.9,3.3,1.8,3.6
		c-4.7,2.4-8.4,5.3-9.6,7.3c-0.1,0.1-0.2,0.2-0.2,0.3c-2.1-0.4-5.1-1.3-8.1-3.6c-2.7-2-6.4-5.6-9.7-8.9c0.5-2.2,1.1-6.2,0.2-7.2
		c-1.1-1.2-3,0.2-4.1,3.3c-1.6-1.6-3.1-3.1-3.9-3.8c-0.5-0.5-1.3-1.1-2.1-1.6c0.1-1.8,0.2-4.6-0.8-4.9c-1.2-0.4-2.1,1.5-2.5,3.1
		c-2.9-1.4-6.2-2.5-8.7-3l-0.5-0.1c-0.4-0.1-0.9-0.2-1.4-0.2c0.6-1.8,1.4-4.6,0.5-4.5c-1.1,0.2-3,2-4.3,3.8
		c-3.1-0.4-6.4-0.5-8.5,0.7c0.6-2.8,1.5-8.1,1.2-11.9l0.5-0.4c6.2-4.8,26.5-20.5,30.5-23.9c1.2-1,2.8-2.2,4.4-3.4
		C133.6,447.9,138.5,444.2,141.5,440.2 M182.1,461.9c0.2-0.1,0.3-0.4,0.3-0.6V461c1.8-3.1,5.9-7.1,9.1-9.5c1.4-1,2.2-1.3,2.5-1.4
		c0.1,0.1,0.2,0.2,0.5,0.5c1.9,1.9,3.8,2.1,5,2c1.2-0.1,2.4-0.7,3.2-1.5c4.9-3.4,8.9-1.7,9.1-1.6c0.5,0.2,1.1,0.3,1.6,0.3
		c7.2,0.2,9.7,3.9,14,10.6c0.8,1.3,1.8,2.7,2.8,4.2c4.6,6.6,14.9,11.6,24.5,15.5c-0.1,0.1-0.2,0.1-0.2,0.2c0,0-1.7,1.1,0,3.3
		c1.7,2.2,6,7.8,6.7,6.3c0.6-1.4-0.9-6.2-1.8-8.1c1,0.4,2,0.8,2.9,1.1c1.9,0.7,3.9,1.5,5.5,2.1c10.9,4.4,19.4,5.7,30.3-1.1
		c7.7-4.9,10.8-2.7,12.9,0.1c2.7,3.7,6.9,5.5,11.2,7.4c2,0.9,4,1.8,6,2.9c2.1,1.2,2.4,2.1,2.4,2.3v-0.1v0.1
		c-0.1,0.1-0.1,0.3-0.2,0.5c0,0.1-2.2,7.3-4.9,17.1c-1.5,5.2-4.7,5.8-6.2,5.8c-17.2-7.1-28,1.2-35.1,6.8c-2.7,2.1-5.4,4.2-7.1,4.2
		c-1.5,0-2.6-0.4-3.6-1.2c-0.2-0.4-0.5-0.7-0.8-1.1c-0.6-0.9-1.2-1.8-1.9-2.6c-0.4-0.7-0.8-1.5-1.3-2.5c-1.2-2.4-2.6-5.1-4.5-7.7
		c-4.6-6.3-19.5-14.8-27.8-19.2c-1.5-1.7-3.6-3.1-6.3-3.9c-3.1-3-9-8.2-13.5-10.1c-4.3-1.7-9.1-5.2-14.3-10.5
		c-1.9-1.8-3.9-2.7-6-3.3c-0.4-2.6-1.2-6.6-2.6-6.6c-1.5,0-2.9,3.8-3.4,5.7c-3-0.4-6.1-1.1-9.4-3.8c-0.4-0.3-0.4-0.5-0.4-0.8
		c0-0.5,0.2-0.9,0.4-1.5L182.1,461.9z M370.1,459.6C370.2,459.6,370.2,459.6,370.1,459.6c0.3,0.1,0.6,0.2,0.8,0.2
		c-0.5,1.2-1.3,3.6,1.5,3.5c3.6-0.2,6.5-2.4,3.1-6.6c1.3-2.1,3.8-6,3.8-6c0.4-0.7,0.7-1.5,0.6-2.3c0-0.6,0-1,0-1.2
		c0.4,0,1.3,0.1,2.1,0.4c1.5,0.6,3.1,0.3,4.2-0.8c1.3-1.2,2.1-1.5,2.3-1.5c0.2,0.1,0.8,0.8,1.1,1.5c0.6,1.5,2.1,2.5,3.6,2.5
		c0.2,0,0.3,0,0.5,0c0,0.5-0.1,1.9-0.7,5c-0.5,2.2-1,4.5-0.7,6.6c-1,0.8-3.8,2.1-6.7,2.8c-1.5,0.4-2.7,1.6-2.9,3.2
		c-0.2,1.5,0.4,2.9,1.6,3.8c0,0.8-0.9,3.1-1.1,3.9c-1.3,3.6-2.9,8.1-1.1,12.5c0.3,0.8,0.3,0.8-2.1,2.6c-2.3,1.7-5.7,4.3-8.1,9
		c-3.3,4-11.1,7.9-21,10.6c-9,2.4-12.3,13-12.4,13.4c-0.2,0.8-0.2,1.7,0.1,2.5c-3.8,1.2-12.6,3.4-14.5-2.1c2.2-1.2,4.3-3.5,5.5-7.8
		c2.6-9.2,4.7-16.3,4.8-16.9c0.2-0.3,0.5-1.2,0.4-2.5c1.4-1.8,2.6-5.4,4.2-12.9c1.8-8.4,7.3-11.9,15.7-17.1l3.6-2.3
		C366.5,458.7,370.1,459.6,370.1,459.6 M240.5,504.5c0-0.3-0.1-0.5-0.1-0.8c7.9,4.4,17.8,10.5,21,14.9c0,0,0.1,0.1,0.1,0.2
		c-2.6-0.8-5.8-0.8-9.8,0.5c-12,3.7-15.8,2-22.7-0.9c-1.5-0.6-3.1-1.3-4.9-2c-3-1.1-4.2-3-3.6-5.3c0.7-2.7,3.5-4.9,4.5-4.8
		c0.1,0,2.9,1.3,1.6,6.6c-0.5,2.1,7.1,2.2,10.2,0.1C239,511.4,240.8,508.4,240.5,504.5 M82,453.4c-1.4-2.2-3.7-5.2-5.9-8.1
		c-2.4-3.2-4.9-6.6-6-8.3c8.9-4.1,17.8-6.3,20.3-4.9l0.2,0.1c2.9,1.7,5,2.9,5.1,4.6c0.2,1.6-0.8,6.4-13.3,17.5
		C82.3,453.9,82.1,453.6,82,453.4 M253.1,523.6c7.1-2.2,10.6,0.6,13.8,4.9c0.9,1.7,1.9,3.2,3.1,4.4c2.6,3.6,5.5,7.1,10.1,7.6
		c2.4,0.3,3.3,0.8,3.6,1c0,0.2-0.1,0.5-0.3,1.1c-0.1,0.2-0.1,0.4-0.2,0.5c-0.1,0.2-0.1,0.5-0.2,0.6c-2.6,1.6-8.1,3.7-16.4,0.9
		c-0.2-0.1-0.4-0.1-0.5,0.1c-0.2,0.1-1.7,1.2-0.8,4.7c0.2,1,0.2,1.7-0.1,2.2c-0.6,0.9-2.5,1.1-4.6,1.3c-0.8,0.1-1.7,0.2-2.6,0.3
		c1.9-2.3,3.4-5.8,3.4-10.9c0-10.9-6.9-15.1-18.1-16.5C246.1,525.5,249.2,524.8,253.1,523.6 M92.6,474.1c-2.5-5.3-5.4-11.3-7.8-15.8
		c5.2-4.6,9.1-8.6,11.7-12.2c1.9,0.2,7,0.2,9.4-5c0.5-1,0.9-2.1,1.4-3.3c2.4,3.1,5.4,7.5,6.7,11.3c0.6,1.9,2,3.6,4.1,5.2
		C110.9,459.8,97.8,470.1,92.6,474.1 M101.7,439.1c-0.6,1.3-1.5,2-2.4,2.2c0.8-1.9,1.1-3.6,1-5.1c-0.4-4.2-4.3-6.3-7.5-8.1l-0.1-0.1
		c-3.1-1.7-8.5-0.9-13.6,0.7c0.5-1.3,1.4-2.9,2.4-4.5c0.4-0.7,0.8-1.4,1.2-2c0.6-0.2,1.3-0.5,1.9-0.8c10.8-4.1,13.3-1.8,18.2,2.9
		C105.4,426.9,105.1,431.5,101.7,439.1 M268,557.5c-0.1,0.3-0.2,0.6-0.3,0.9c-0.2,0.9-0.4,3.8,3,5.8c0.1,0.1,0.2,0.1,0.2,0.2
		c-1.1,0.4-5.7,1.4-9.9-5.3C263.2,559.2,265.9,559,268,557.5 M313.4,560.1L313.4,560.1c-0.1,0-0.2-0.1-0.3-0.1c0,0-1-0.2-2.1-0.5
		c-2.8-2.8-7.6-6-12.2-8.8c0.2-1,0.3-2.7-0.3-4c-0.8-1.6-4.2-0.2-5.7,0.5c-2.5-1.4-4.4-2.4-5-2.7c0-0.1,0-0.1,0-0.2
		c0-0.1,0.1-0.3,0.1-0.4c0.4-1.1,1-3.1-0.1-4.9c-1.1-1.6-3.3-2.6-7-3.1c-0.7-0.1-1.3-0.3-1.9-0.6c2.6-0.7,5.2-2.6,8.1-4.9
		c7.1-5.6,16-12.5,31.2-5.9c0.1,0,0.1,0,0.2,0c0,0,0.9,0.1,2.2-0.1c0.7,2,2.7,5,8.1,5.6c-2.5,2.7-2.9,5.3-2.4,9.4
		c0.4,3,0.4,8,0.5,11.1C318.4,561.2,313.4,560.2,313.4,560.1 M411.7,505.4c-2.5,0.4-7.4,0.7-10.9-1.3c2.1-23.6,4.4-26.6,7.1-30
		c1.6-2,3.3-4.2,5.2-8.9c4.5-11.1,13.2-13.3,26.6-16.5l1.5-0.4c9.2-2.2,14.5,1.1,16.4,2.9c-1.4,2.3-3.3,6.6-1.9,10.7
		c1,3,3.8,5.2,8.2,6.7c-4.6,7.5-16.4,15.1-32.7,20.9C416.8,494.6,412.8,502.2,411.7,505.4 M465.8,464.4c-3.2-0.9-5.1-2.2-5.8-3.9
		c-0.8-2.3,0.7-5.4,1.5-6.7c12.4,2.7,22.6-8.9,29.4-16.6c1.4-1.7,2.7-3.1,3.6-4c7-6.6,13-11.2,21.3-4.4c8.2,6.7,5.7,11.9-3.7,25.2
		c-4.9,6.9-27.8,8.7-42.4,7.8C468,461.6,466.3,462.7,465.8,464.4 M476.3,432.5c4.1-5.8,9.4-6.6,11-6.4c0.3,1,0.4,3.6,0.1,6
		c-0.1,0.6-0.2,1.4-0.1,2.1c-0.9,1.1-1.9,2.2-3,3.3c-6.7-2.2-8.2-3.6-8.5-4.3C475.9,433.3,476,432.9,476.3,432.5 M518.7,425.2
		c-2.4-2-4.7-3.2-6.9-3.8c-0.2-4.4,0.2-7.9,0.7-9.3c2.3,1,4.7,1.7,7,2.4c1.6,0.5,6.1,1.9,7,2.7c-0.1,0.2-0.2,0.5-0.5,1
		c-1.6,2.5-4,4.9-7,7.3C518.9,425.4,518.8,425.3,518.7,425.2 M524.2,405.9c-0.9-1.9-1.3-3.2-1.5-4c1.1,0.1,1.5,0.5,2.2,1.1
		c1,0.8,2.2,1.8,4.4,2.5c0.1,0,0.2,0.1,0.2,0.1c-1.9,0.6-3.4,1.4-4.6,2.5C524.8,407.1,524.4,406.3,524.2,405.9 M34.8,415.1
		c0.3-0.3,0.8-0.5,1.2-0.5c0.5,0,0.9,0.2,1.2,0.5c0.3,0.3,0.5,0.8,0.5,1.2c0,0.9-0.8,1.7-1.7,1.7c-0.5,0-0.9-0.2-1.2-0.5
		c-0.3-0.3-0.5-0.8-0.5-1.2C34.3,415.8,34.5,415.4,34.8,415.1"/>
	<path class="st0" d="M125.8,458.4c-2.4,0.6-6.9,6.9-3.6,7.5c0,0,6.1-3.4,7.1-5.2C130.2,458.8,128.2,457.8,125.8,458.4"/>
	<path class="st0" d="M130.8,467.7c2.6,0.8,4-1.2,5.5-3.6c1.4-2.5,0.2-5.9-2.2-3.1C134.1,461,128.2,466.9,130.8,467.7"/>
	<path class="st0" d="M141.4,471.5c1.8-2.4,3.2-5.7,2.6-8.1c-0.6-2.5-2-1.2-2-1.2s-4.8,5.4-4.5,7.3
		C137.9,471.3,139.5,474,141.4,471.5"/>
	<path class="st0" d="M153.7,474c2.6-0.6,1.6-3.8,0.8-6.7c-0.8-2.8-1.4-4.8-2.6-3.7c0,0-1.6,2-1.6,4.9
		C150.2,471.3,151.1,474.6,153.7,474"/>
	<path class="st0" d="M221.1,121.9c0,0-2.8,0.9-2.3,4.3c0.4,3.5,1.2,5.7,5.7,5.1c4.6-0.6,1.3-8.7,0.5-9.5
		C224.1,120.9,221.1,121.9,221.1,121.9 M222.5,128.1c-0.1-0.2-0.3-0.7-0.5-2.2c-0.1-0.7,0.1-0.8,0.2-0.8c0.2,0,0.5-0.1,0.7-0.2
		c0.4,1,0.8,2.5,0.8,3.3C222.9,128.2,222.6,128.1,222.5,128.1"/>
	<path class="st0" d="M220.8,133.2c0,0-1.6,1.4-1.3,3.8c0.3,2.5,0,4.9,3.7,4.8c3.8-0.1,4.2-2.8,3.8-5.8
		C226.6,133,222.8,131.9,220.8,133.2 M223.8,138.5c-0.1,0.1-0.3,0.1-0.7,0.1h-0.2c0-0.3-0.1-0.6-0.1-0.9c0-0.3-0.1-0.6-0.1-0.9
		c0-0.3,0-0.6,0.1-0.8c0.2,0,0.4,0,0.6,0.2c0.3,0.2,0.3,0.3,0.4,0.4C223.9,137.8,223.9,138.3,223.8,138.5"/>
	<path class="st0" d="M220.9,143.7c0,0-4.2,4.8-1.3,6.2c2.8,1.4,5.3,2.1,6.6-2C227.6,143.7,224.5,141,220.9,143.7 M223.2,147
		c-0.1,0.4-0.2,0.6-0.3,0.8c-0.1-0.1-0.3-0.1-0.6-0.3c0.2-0.4,0.6-0.9,0.9-1.4c0.1,0,0.1-0.1,0.2-0.1
		C223.3,146.3,223.3,146.6,223.2,147"/>
	<path class="st0" d="M227.9,117.3c0,0-2.6,0.4-1.9,3.3c0.7,2.9,2,7.1,5.6,5.9c3.6-1.1,2.9-3.9,1.6-7.7
		C231.9,115,229.7,116.4,227.9,117.3 M230.6,123.4C230.6,123.4,230.6,123.4,230.6,123.4c-0.3-0.2-0.8-0.9-1.4-3.2l0.5-0.2
		c0.1,0,0.2-0.1,0.4-0.2c0,0,0,0,0,0c0.2,0.7,0.9,2.6,0.9,3.4C230.9,123.3,230.8,123.4,230.6,123.4"/>
	<path class="st0" d="M228.1,131c0,0-1.3,6.3,2.2,6.3c3.4,0,5.6-0.7,5.5-5.2C235.6,126.2,228.9,125.4,228.1,131 M232.4,133.9
		c-0.1,0-0.4,0.1-1.2,0.2c-0.1-0.7,0-1.6,0.2-2.4c0-0.1,0-0.2,0-0.3c0.1-0.6,0.3-0.9,0.4-0.9c0,0,0.1,0,0.2,0.1
		c0.2,0.1,0.5,0.6,0.6,1.7C232.6,133.3,232.4,133.8,232.4,133.9"/>
	<path class="st0" d="M231.5,138.8c0,0-3,0.9-3,3.3c0,2.5-1.4,6.9,2.2,6.4c3.6-0.6,6.9-1.4,6.1-6.6
		C235.8,136.6,233.9,138.1,231.5,138.8 M233.4,144.2c-0.2,0.3-1.1,0.6-1.9,0.8c0-0.3,0.1-0.6,0.1-0.8c0.1-0.6,0.1-1.3,0.2-1.9
		c0.1-0.1,0.5-0.3,0.7-0.4c0.3-0.1,0.6-0.2,0.9-0.3c0,0.2,0.1,0.4,0.1,0.7C233.6,143.4,233.5,144,233.4,144.2"/>
	<path class="st0" d="M235.5,109.5c0,0-2.9,1.9-1.7,6.3c1.2,4.5,3.9,4.8,5.7,3.8c1.7-1,3-2,1.7-6.5
		C239.9,108.7,237.4,107.1,235.5,109.5 M237.3,112.2L237.3,112.2C237.3,112.2,237.3,112.2,237.3,112.2
		C237.3,112.2,237.3,112.2,237.3,112.2 M238.4,116.4c-0.1,0.1-0.2,0.2-0.6,0.4h0c-0.2-0.1-0.5-0.6-0.8-1.7c-0.4-1.8,0.1-2.5,0.4-2.8
		c0.2,0.4,0.5,1,0.7,1.8C238.5,115.6,238.4,116.2,238.4,116.4"/>
	<path class="st0" d="M236.5,125.5c0.9,3.2-0.2,7.2,3.7,5.3c3.9-1.9,4-3.4,3.2-7.4C242.3,118,235.6,122.4,236.5,125.5 M240.6,126.8
		c0,0-0.1,0.1-0.5,0.4c-0.1-0.7-0.2-1.5-0.4-2.2c0.1-0.2,0.3-0.5,0.6-0.6C240.7,126.1,240.7,126.6,240.6,126.8"/>
	<path class="st0" d="M237.8,136.5c0.1,3.9,0.3,7.4,3.6,6.5c3.3-0.9,4.7-2.8,4-7.5C244.6,129.3,237.7,132.6,237.8,136.5
		 M241.3,139.7c-0.2-1-0.2-2.3-0.2-3.3c0,0,0.1-0.3,0.4-0.6c0.2-0.2,0.5-0.3,0.7-0.4c0,0.1,0.1,0.3,0.1,0.6
		C242.6,138.7,242.3,139.3,241.3,139.7"/>
	<path class="st0" d="M335.6,156.1c-1-0.2-2,0.7-3.5,2.3l-1.2,1.2c-2.2,2.2-7.3,7.5-8.7,7.7c-0.3,0-0.6,0.3-0.6,0.7
		c0,0.4,0.3,0.6,0.7,0.6h21.1c0.2,0,0.5-0.1,0.6-0.4c0.1-0.2,0.1-0.5-0.1-0.7c-1.7-2.3-6.2-8.6-6.9-10.1
		C336.7,157,336.4,156.3,335.6,156.1 M332.8,164.1c0.7-0.6,1.3-1.3,1.3-1.3l0.5-0.4c0.3,0.5,0.7,1.1,1.2,1.7H332.8z"/>
	<path class="st0" d="M46.5,362.9c12.8,41.8,21.8,49.5,18.6,25.7c-3.2-23.8-7.4-42.4-4.8-46.3c2.6-3.8,0.9-9.9-0.3-16.1
		c-1.3-6.1,2.2-7.4-2.6-22.5c-4.8-15.1,0.6-11.2,0.3-18.9c-0.3-7.7-2.9-7.4-1.9-16.7c0.9-9.3,1.3-22.8,1.3-22.8s-8.1-0.3-9,5.2
		c-1,5.4-1,68.8,3.2,91.3c4.2,22.5-7.4,0.6-9-27c-1.6-27.7-0.6-59.2-0.6-59.2s1.3-7.4-7.7-9.3C33.9,246.2,33.6,321.1,46.5,362.9"/>
	<path class="st0" d="M83.1,344.2c0-15.4-5.8-22.5-3.2-31.8c2.6-9.3,4.2-12.9-0.6-20.6c-4.8-7.7-2.9-7.1-1.6-16.7
		c1.3-9.6-1.3-23.8-0.3-31.5c0,0-4.5-3.5-5.2,0.6c-0.6,4.2,1.3,56.6,4.2,77.5c2.9,20.9-2.6,12.2-4.5-5.5
		c-1.3-12.1-4.5-70.1-4.5-70.1s-5.8-4.5-7.1-0.3c0,0-1.3,70.1,11.9,96.8C85.3,369.3,83.1,359.7,83.1,344.2"/>
	<path class="st0" d="M101.1,327.5c-2.3-8.4-2.3-9.9-1.6-17.4c0.7-7.4-2.6-13.2-3.8-23.1c-1.3-10-2.3-34.1-1.9-47.3
		c0,0-1.9-2.3-5.5,0.3c0,0,0.3,35,1.9,47.9c1.6,12.8-5.2-1-5.5-23.2c-0.3-22.2,0-26.7-4.2-22.5c0,0-1.3,67.9,17.7,89.1
		C98.2,331.4,103.4,335.9,101.1,327.5"/>
	<path class="st0" d="M97.9,235.2c0,0-2.2,62.4,14.8,79.4c17,17,4.2,1,4.2-19c0-23.2-4.8-18-5.2-23.8c0,0-0.9-23.5-1.9-30.5
		c-1-7.1-6.1-10.3-4.5,1c1.6,11.3,4.8,40.8,0.7,41.2c-4.2,0.3-3.6-18.6-3.9-29.9C101.8,242.3,103.4,235.9,97.9,235.2"/>
	<path class="st0" d="M122,233c0,0-2.9-2.6-1.9,8.3c0.9,10.9,3.2,21.5-0.7,21.2c-3.8-0.3-2.2-13.8-2.9-19.3c-0.6-5.5-1.6-12.2-3.8-8
		c0,0,0.6,42.1,12.2,59.5c11.6,17.4,11.6,4.2,6.1-6.1c-5.5-10.3-6.5-23.2-6.5-32.5C124.6,246.8,122,233,122,233"/>
	<path class="st0" d="M133.3,274.1c7.4,10.3,5.1,1.6,3.5-9c-1.6-10.6-1.6-27-1.3-35c0,0-1.9-1.9-4.2,0c0,0,2.2,19,0.3,18.6
		c-1.9-0.3-2.6-7.1-3.2-13.8c-0.6-6.8-1.3-4.8-3.2-3.5C125.2,231.4,125.9,263.9,133.3,274.1"/>
	<path class="st0" d="M38.7,180.9c0,0-2.1,13.3-2.9,33.1c-0.8,19.8,0.5,22.9,8.1,23.3c9.9,0.5,11.7-6.3,13.3-22
		c1.7-17,1.9-25.8,2.1-28c0.2-2.7-5.4-9.3-6.4,1.1c-1.1,10.4-0.5,42.7-6.9,41.4c-6.4-1.3-4.8-17.6-3.5-28.8
		c1.3-11.2,4.8-24.6,0.5-25.6C38.7,174.3,38.7,180.9,38.7,180.9"/>
	<path class="st0" d="M62.7,187.3c0,0-8.3,47.8,0.3,48.1C76,236,74,222.3,75.3,207.3c1.3-14.9,2.7-19.2-0.5-19.2
		c-3.2,0-4,14.4-4.5,22.1c-0.6,7.7,0,17.9-3.7,17.4c-3.7-0.5-3.4-11.5-2.1-20.9C67.3,185.5,66,182.8,62.7,187.3"/>
	<path class="st0" d="M82.5,192.7c0,0-1.1-2.1-2.7-1.9c0,0-1.5,16.6-2,26.5c-0.5,9.9,1.2,14.3,7.6,14.3c6.4,0,5.9-11.5,6.1-20.8
		c0.2-9.4,2.7-17.6,0-18.4c-2.7-0.8-2.9,6.2-3.2,12.3c-0.3,6.1-0.8,19.7-3.5,19.7c-2.6,0-4.3-3.2-3.7-13.1
		C81.7,201.5,82.5,192.7,82.5,192.7"/>
	<path class="st0" d="M268.6,232.6c2.3-0.6,1.8-2,3.7,0c1.9,2,2.1,2.3,4.4,1.8c2.3-0.4,5.1,0.7,6.4,2.1c1.3,1.4,3.3,1.1,3,2.4
		c-0.3,1.3-2.4,2.7,2.7,3.7c5.1,1,7.1,1.7,8.5-0.1c1.4-1.9,3.7-1.9-0.6-4.3c-4.3-2.4-5.7-2.1-9.1-5.5c-3.4-3.4-3-3.4-5.2-4.3
		c-2.3-0.8-5-2.1-8.4-1.1c-3.4,1-7.8,1-7.8,1s-1.5,1.1-0.4,2.4C266.9,232,266.3,233.1,268.6,232.6"/>
	<path class="st0" d="M291.3,245.5c-1.7-0.1-2.7-1.4-4.2-1.4c0,0-2.6-0.3-1.1,2c1.4,2.3,2.7,2.5,4.2,2.1
		C291.7,247.7,293,245.6,291.3,245.5"/>
	<path class="st0" d="M303.5,247c0,0,3.4-0.1,5.3-1.1c1.8-1,3.3,0.4,4.9,0.7c1.7,0.3,3,0.3,4.1-1.7c1.1-2-0.3-3.2-1.7-4.7
		c-1.4-1.4-3.7-1.3-5.4-0.4c-1.7,0.9-1.3,1.4-3,1.7C306,241.8,301.3,246.5,303.5,247"/>
	<path class="st0" d="M323.9,248.3c0.7-0.2,2.8,0.4,3.7,0.3c0.8-0.2,2.3-0.2,0.8-2.5c-1.4-2.4-0.8-3-3.5-2.6
		c-2.7,0.4-2.3,1.4-2.3,1.4S323.2,248.4,323.9,248.3"/>
	<path class="st0" d="M334.2,279.3c0.4,0.4,1.7,1.4,2.1-0.3c0.4-1.7,0.4-4.4-3.3-3.4c0,0-1.2,1-0.4,1.8
		C333.5,278.3,333.8,278.9,334.2,279.3"/>
	<path class="st0" d="M127.3,202.6c-3.9,29,7.5,18.7,7.5,18.7c0.5-7.2,1.8-17.1,1.8-17.1c-1-1.6-2.3-0.8-2.6,2.9
		c-0.2,3.6-0.5,12.2-3.4,11.4c-2.8-0.8-0.5-15.8-1.8-16.3C127.5,201.6,127.3,202.6,127.3,202.6"/>
	<path class="st0" d="M113.3,199.2c0,0-2.1,14.2-2.1,18.6c0,4.4,2.4,7.8,8.1,7.3c5.7-0.5,4.4-8,4.9-14.3c0.5-6.2,1-9.8,1-9.8
		c-2.8-1.1-2.6-0.3-3.6,7.7c-1.1,8-0.8,11.4-4.7,11.7c-3.9,0.3-1.8-15-1.3-18.7C116.1,198.2,113.3,199.2,113.3,199.2"/>
	<path class="st0" d="M97.2,195.6c0,0-2.3,14-2.3,24.9c0,10.9,12.4,7.8,12.9-0.3c0.5-8,2.8-22.3,2.8-22.3c-4.1-3.1-4.4,5.2-5.2,12.5
		c-0.8,7.2-1,11.6-4.9,10.9c-3.9-0.8-1.3-20.5-1-23.9C99.8,194,97.2,195.6,97.2,195.6"/>
	<path class="st0" d="M91.5,453c-1.9,3.5-1,4.6,1.2,4.9c2.2,0.3,2.7-6,2.7-6C94.8,449.3,93.4,449.4,91.5,453"/>
	<path class="st0" d="M100,451.2c0,0-2.8-0.4-2.3,3.9c0.5,4.4,2.9,4.9,3.9,4.1c1.1-0.8,0.7-4.8,0.7-5.7
		C102.3,452.5,101.2,449.8,100,451.2"/>
	<path class="st0" d="M105.9,450.2c0,0-0.6,3.5,1.1,5.9c1.7,2.3,4.6,3.5,3.7-1.4C109.7,449.8,108.6,448.5,105.9,450.2"/>
	<path class="st0" d="M60.1,442.3c-1.1-0.6-2.2-1-3,0.8c0,0-0.9,2.7,1.8,2.7C61.7,445.9,61.2,442.9,60.1,442.3"/>
	<path class="st0" d="M48.7,449.2v0.3c0,0-0.1,2.2,1.4,2.2c1.5,0,1.7-0.7,1.8-1.8C52,448.7,49.5,447.5,48.7,449.2"/>
	<path class="st0" d="M52.5,463.8c0,0-1.6,1.7,0.4,3.1c2,1.3,2.6,0.9,2-1.6C54.4,462.6,53.6,462.8,52.5,463.8"/>
	<path class="st0" d="M65.3,463.3c0,0,1.6,1,1.9,0.3c0.3-0.7-0.4-1.6-0.4-1.6S64.2,461.3,65.3,463.3"/>
	<path class="st0" d="M67.5,474.3c0,0-0.8,2.6,1.2,2.8c2,0.3,2.3-1.9,1.5-2.7C69.4,473.6,67.5,473.7,67.5,474.3"/>
	<path class="st0" d="M78.7,477.5c0,0,1.9,0.4,1.9,0c0-0.4,0.3-1.3-0.4-1.9C79.5,475.1,77.8,475.7,78.7,477.5"/>
	<path class="st0" d="M76.5,517.6c0,0,4-9.3-1.6-7.5c0,0-2.9,1.9-2,6.4c0,0-2.9-1.1-0.9,2.7c1.9,3.8,3.3,7.4,7,3.8
		C82.5,519.5,76.5,517.6,76.5,517.6"/>
	<path class="st0" d="M90.4,524c0,0-3.3,2.6-2.3,3.8c0.9,1.2,5.2,1.8,5.6,0.2C94.1,526.3,91.9,522.8,90.4,524"/>
	<path class="st0" d="M104.6,526.6c0,0-3.7,1.1-1.9,3c1.8,1.9,5.3,2.2,5.5,1.7C108.3,531,110.1,525.5,104.6,526.6"/>
	<path class="st0" d="M93.7,510.2c0,0-4.1,2.3-2.5,4c1.6,1.7,4.6-1.3,4.6-1.3S96.7,509.7,93.7,510.2"/>
	<path class="st0" d="M106.5,505.9c2.8,1.1,4.2-1.2,4.2-1.2s-2-5.2-4.6-3.3C106.1,501.4,103.7,504.8,106.5,505.9"/>
	<path class="st0" d="M123.7,524.4c2.9,1.4,4.4,0.1,4.4,0.1s1.9-3-5.6-4.5C122.5,520.1,120.8,523.1,123.7,524.4"/>
	<path class="st0" d="M164.8,522.8c0-2.8-3.3-1.8-3.3-1.8s-1.9,0.5-2,1.8c-0.1,1.3,2.5,1.6,2.5,1.6S164.8,525.7,164.8,522.8"/>
	<path class="st0" d="M165.1,539.3c-1.5-0.8-3.3,1.1-3.3,1.1s-1.1,3.7,2.6,3.7c3.7,0,3.4-2.5,3.4-2.5S168.1,540.9,165.1,539.3"/>
	<path class="st0" d="M184,533.7c-0.1-2.2-2.3-3.4-3.9-3.2c0,0-3.6,0.3-4.2,3.3c-0.7,3,4.9,3,4.9,3S184.2,535.9,184,533.7"/>
	<path class="st0" d="M179.8,545.2c0,0,0.1,2.7,3.3,2.7c3.1,0,2.9-2,2.9-2S180.6,542.8,179.8,545.2"/>
	<path class="st0" d="M198.7,534.5c3.6-0.1,2.6-2.7,2.6-2.7s-1.1-1.5-3.4-1.4c-2.3,0.1-2.7,0-2.9,1.9
		C195.1,532.3,195.2,534.6,198.7,534.5"/>
	<path class="st0" d="M164.1,475.2c2.1-0.2,0.5-6.8,0.5-6.8s-1.5-3.9-2.6-3.7c0,0-3.2-0.1-1.9,5C161.2,475,162,475.4,164.1,475.2"/>
	<path class="st0" d="M171.9,472.3c1.4,2,2.5,2.2,4.3,1.2c1.7-1-3.2-8.5-3.2-8.5s-4.7-2.6-4.2,0.1
		C168.6,465.1,170.5,470.4,171.9,472.3"/>
	<path class="st0" d="M110.6,470.7c-1.5-0.1-6.8,3.7-4.8,4.6c0,0,2.7,0.8,4.6-1.3C112.2,472,112.1,470.9,110.6,470.7"/>
	<path class="st0" d="M119,474.7c0,0-6.2,6-3.8,7.2c2.4,1.3,4.3-2.2,5.3-4.7C121.4,474.7,120.2,473.6,119,474.7"/>
	<path class="st0" d="M124.9,484.1c0.7,1.8,2.4,4.5,4.1-0.2c1.7-4.7,0.9-5.1-0.5-3.8C128.6,480.1,124.3,482.3,124.9,484.1"/>
	<path class="st0" d="M140.2,486.2c1-5.7,0.1-5.2-1.4-3.8c0,0-3.9,3.2-2.9,4.7C137,488.6,139.2,491.9,140.2,486.2"/>
	<path class="st0" d="M151.2,494.1c3.1,0.2,2.1-4.6,1.4-8c-0.8-3.4-1.7-3.6-2.6-3.6c0,0-1.8-0.4-1.7,3.8
		C148.3,490.5,148.1,493.9,151.2,494.1"/>
	<path class="st0" d="M162.1,484.7c0,0-3.1,6.6,1.1,9.3c4.1,2.6,2.6-2.2,1.8-5.2C164.2,485.9,163,482.9,162.1,484.7"/>
	<path class="st0" d="M174.3,483.7c0,0-2.3-0.4-1.5,3.2c0.8,3.6,1.9,6.8,5.5,6.1C181.8,492.3,176.4,485.1,174.3,483.7"/>
	<path class="st0" d="M193.2,492.3c1.9-3.6-7.3-10.4-8.8-9.5c0,0-2.7,1.4,0,4.4C187.1,490.1,191.3,495.8,193.2,492.3"/>
	<path class="st0" d="M204.4,490.3c2.2-1.4-3.4-6.7-3.4-6.7s-4.1-4.5-5.1-3.4c0,0-2.3,2.6,0.9,5.9
		C200,489.4,202.2,491.7,204.4,490.3"/>
	<path class="st0" d="M142.1,500.2c0,0-5.9,8.4-2.3,9.9c3.7,1.5,4-6,3.9-9.1C143.6,497.9,142.1,500.2,142.1,500.2"/>
	<path class="st0" d="M197.4,498.3c0,0,2.1,4.2,2.5,5.9c0.4,1.7,2.2,4.7,4,1.9c1.8-2.7,0.7-3.7-1.2-6.1
		C201,497.7,196.1,495.8,197.4,498.3"/>
	<path class="st0" d="M74.3,162.8c0,0-6-1.4-8.2,5.2c-2.3,6.6-0.7,9.2,0.7,8.9c1.4-0.3,2.1-6.6,3.8-5.9c1.6,0.6-1.9,6.2,0.4,6.8
		c2.3,0.6,3.1-6.3,4.9-5.6c1.8,0.6-1.8,6.3,0.8,7C79.2,179.8,82.8,165.2,74.3,162.8"/>
	<path class="st0" d="M91.5,168.7c0,0-5.5-1-7.3,5c-1.8,6-0.3,8.4,0.9,8c1.2-0.3,1.7-6,3.2-5.5c1.6,0.5-1.5,5.7,0.6,6.1
		c2.1,0.5,2.6-5.8,4.3-5.3c1.6,0.5-1.4,5.7,1,6.3C96.5,184,99.3,170.6,91.5,168.7"/>
	<path class="st0" d="M57.4,171.9c3.3,1.1,9.2-15.9-1.6-19.6c0,0-7.6-2.2-11.1,5.5c-3.4,7.6-1.7,10.9,0.1,10.6
		c1.7-0.3,3.2-7.7,5.3-6.8c2.1,0.9-2.9,7.2,0,8.1c2.9,0.9,4.5-7.2,6.8-6.3C59.1,164.4,54.1,170.8,57.4,171.9"/>
	<path class="st0" d="M107.2,174.6c0,0-4.7-1.1-6.6,4.1c-1.8,5.2-0.6,7.3,0.5,7c1.1-0.2,1.6-5.2,3-4.7c1.3,0.5-1.5,4.9,0.4,5.4
		c1.8,0.5,2.5-4.9,3.9-4.5c1.4,0.5-1.4,5,0.7,5.6C111.1,188.1,114,176.5,107.2,174.6"/>
	<path class="st0" d="M122.6,190.3c1.7,0.5,4.1-9.1-1.5-10.6c0,0-3.9-0.9-5.4,3.4c-1.5,4.3-0.5,6,0.4,5.8c0.9-0.2,1.4-4.3,2.5-3.9
		c1.1,0.4-1.2,4,0.3,4.4c1.5,0.4,2-4.1,3.2-3.7C123.2,186.1,120.9,189.8,122.6,190.3"/>
	<path class="st0" d="M136.2,193.5c1.8,0.2,2.8-9.5-2.9-10.3c0,0-4-0.3-4.9,4.1c-0.9,4.5,0.4,6,1.2,5.7c0.8-0.3,0.8-4.5,1.9-4.2
		c1.2,0.2-0.7,4.1,0.9,4.3c1.6,0.2,1.5-4.3,2.7-4.1C136.3,189.3,134.5,193.2,136.2,193.5"/>
	<path class="st0" d="M47.9,184.3c-1,5.6-5.4,38.4-2.5,38.9c2.9,0.6,2.5-14.3,3.3-21.8c0.8-7.6,2.1-19.1,2.1-19.1
		S48.9,178.7,47.9,184.3"/>
	<path class="st0" d="M68.3,191.2c-0.7,4.4-4.1,30.2-1.9,30.7c2.2,0.5,1.9-11.2,2.5-17.1c0.6-5.9,1.6-15,1.6-15S69,186.8,68.3,191.2
		"/>
	<path class="st0" d="M85,195.7c-0.5,3.5-2.7,24.1-0.5,24.3c2.2,0.2,1.4-9,1.7-13.7c0.3-4.7,0.9-11.9,0.9-11.9S85.5,192.2,85,195.7"
		/>
	<path class="st0" d="M102.1,197.9c-0.6,2.7-3.1,18.3-0.8,18.5c2.2,0.1,1.5-6.8,1.9-10.4c0.4-3.6,1.1-9.1,1.1-9.1
		S102.7,195.2,102.1,197.9"/>
	<path class="st0" d="M120.1,200.9c0,0-1.5-1.2-1.9,0.9c-0.4,2.1-2.1,14.4-0.1,14.4c2,0,1.1-5.4,1.3-8.2
		C119.6,205.2,120.1,200.9,120.1,200.9"/>
	<path class="st0" d="M133,202.8c0,0-1.2-1-1.6,0.8c-0.4,1.8-1.8,12.3-0.1,12.3c1.7,0,1-4.6,1.1-7C132.7,206.4,133,202.8,133,202.8"
		/>
	<path class="st0" d="M398.8,189.4v10.3c0,0,5.2-0.4,5.2-1.7c0-1.3,2.1,0.6,2.1,0.6S405.2,192.8,398.8,189.4"/>
	<path class="st0" d="M406.5,218.3c-2,0-3.7,0.6-3.5-4.3c0.2-4.9,0.9-8.6-3.9-6.8V223c0,0,7.1,5,11.2,0c0,0,1.7-9.6-1.3-16.3
		c0,0-0.7-0.6-2.4,1C406.7,207.8,408.4,218.3,406.5,218.3"/>
	<path class="st0" d="M399.2,230.1c0,0-0.8,11.8,0,11.8c0.9,0,4.5-0.2,4.3-7.5C403.3,227.1,400.7,228,399.2,230.1"/>
	<path class="st0" d="M407.8,228.4c0,0-1.5-0.2-1.5,4.7c0,4.9-1.3,8.4,0.2,8.4c1.5,0,2.8-4.3,3.9-8.6
		C411.4,228.6,409.9,227.3,407.8,228.4"/>
	<path class="st0" d="M400.3,252.6c2.8,0.2,6.9,0,7.5-4.7c0.6-4.7-4.7-3.4-8.8,0.5C399,248.3,397.5,252.4,400.3,252.6"/>
	<path class="st0" d="M399,258.4c0,0-0.7,13.5,0.2,12.9c0.9-0.7,5-9,6-12.2C406.2,255.8,400.1,256,399,258.4"/>
	<path class="st0" d="M396.9,345c1.9,7.9,0.5,7.4-1.4,7.4c-1.8,0-3.7-11.1-6.5-3.7c-1.6,4.3-4.2,10.6,0.9,10.2
		c5.1-0.5,18.1,0.4,13.9-9.7C399.7,339,395.1,337.1,396.9,345"/>
	<path class="st0" d="M408.5,377.4c0,0,1.7-1.5,1-4.3c-0.7-2.8-9.2-1-9.2-1l-19,1c0,0-2.3,4.1-1.6,4.8
		C379.7,377.9,407.1,378.3,408.5,377.4"/>
	<path class="st0" d="M391.3,393.7c-0.1-7.4-1.6-13.8-7.5-13.5c0,0-8-0.4-8.3,4.9c-0.3,5.3-0.8,13.2,1.6,13.2c2.4,0,0.6-9.6,2.5-9.7
		c2-0.2,2.1,3.8,2.1,6.5c0,2.7,3.5,3.8,3.2-0.3c-0.3-4.1-2-7.2,0.1-6.6c2.1,0.6,2.7,1,2.3,4.8C386.9,396.8,391.4,401.2,391.3,393.7"
		/>
	<path class="st0" d="M399.2,387.8c1.8-0.1,1.9,3.5,1.9,6c0,2.4,3.3,3.5,3-0.3c-0.3-3.8-1.8-6.6,0.1-6.1c2,0.5,2.5,0.9,2.1,4.4
		c-0.4,3.5,3.8,7.5,3.6,0.6c-0.1-6.8-1.4-12.7-6.9-12.4c0,0-7.4-0.4-7.6,4.5c-0.3,4.9-0.8,12.2,1.4,12.2
		C399.1,396.7,397.4,387.9,399.2,387.8"/>
	<path class="st0" d="M206.3,473.4c3,0.2,1.5-14.4-1.8-11.7c0,0-1.7,1.3-1.8,4.7C202.5,469.8,203.3,473.3,206.3,473.4"/>
	<path class="st0" d="M218,472.1c-0.8-5.5-3.3-8-3.5-6c0,0-1,3.3-0.2,7C215.2,476.8,218.9,477.6,218,472.1"/>
	<path class="st0" d="M229.9,473.6c0.8-0.8-3.7-9.3-5.5-6.8c0,0-2.2,1,0.3,4.3C227.2,474.5,229,474.5,229.9,473.6"/>
	<path class="st0" d="M241.9,490.5c-0.3-1.2-2.5-3-3.3-2.8c0,0-2.4,1.1-0.3,3.1C240.2,492.8,242.2,491.7,241.9,490.5"/>
	<path class="st0" d="M252.1,491.2c2.7-1.3-2.7-6.2-6-6c0,0-1.9,0.2,0,2.8C247.9,490.7,249.4,492.5,252.1,491.2"/>
	<path class="st0" d="M264.4,507.9c3.2,2.7,5.5,2.7,3.8-0.6c-1.7-3.4-3.3-5.7-4.7-4.2C263.6,503,261.3,505.2,264.4,507.9"/>
	<path class="st0" d="M279.6,505c0.9-2.2-4.5-9.4-6.7-9.2c0,0-2.8,0.3-0.3,4.9C275.1,505.2,278.8,507.2,279.6,505"/>
	<path class="st0" d="M287.6,502.3c-0.2-2.2-4-10.2-4.5-7.7c0,0-1.5,5.2,0.8,8C286.3,505.5,287.8,504.5,287.6,502.3"/>
	<path class="st0" d="M298.5,499.2c-0.5-3.2-3.2-8-4.3-7c0,0-2.5,1.2-0.3,4.8C296,500.7,299,502.3,298.5,499.2"/>
	<path class="st0" d="M306,495c5.3,0-1.1-4.2-1.7-5c-0.5-0.8-2.8-1.3-2.7,0C301.7,490,300.7,495,306,495"/>
	<path class="st0" d="M306,512.4c-0.3-1.8-1.7-3-3-3c0,0-3.5-0.3-1.2,2.5C304.2,514.7,306.3,514.2,306,512.4"/>
	<path class="st0" d="M315.5,510.9c-1.8-5-3.5-7.5-5.4-6.3c0,0-1.5,2.2,0.8,5.5C313.3,513.4,317.4,515.9,315.5,510.9"/>
	<path class="st0" d="M322,504.2c-0.7-4-7.5-13.9-7.5-10.2c0,0-0.7,3.2,1.6,6.4C318.5,503.5,322.7,508.2,322,504.2"/>
	<path class="st0" d="M300.5,525.7c-1,1.7-2.3,6.4,0.7,5c0,0,5-2.8,4.2-4.3C304.5,524.9,301.5,524.1,300.5,525.7"/>
	<path class="st0" d="M310,535.9c-2.7,0.7-5.2,3.2-3.7,4.9c0,0,1.5,2.9,4.9,0C314.5,537.9,312.7,535.2,310,535.9"/>
	<path class="st0" d="M352.8,540.9c0,0-6,4.8-1,5.2c5,0.3,5.8-1.3,4.3-3.7C354.6,540.1,354.4,539.9,352.8,540.9"/>
	<path class="st0" d="M385.5,545.2c-1.3,0-6.2,2.7-4.2,4.8c0,0,4,1.7,6-1.2C389.3,546.1,386.8,545.2,385.5,545.2"/>
	<path class="st0" d="M398.3,535.4c-2.3,1-3.7,3,0,4.7c0,0,2.5,0.5,4-2C403.9,535.6,400.7,534.4,398.3,535.4"/>
	<path class="st0" d="M377,533.3c0,0-5,6.3,0.2,6.7c5.2,0.3,2.5-4.4,2.5-4.4S377.8,531.9,377,533.3"/>
	<path class="st0" d="M377.1,522.7c-2.5-2.2-3.8-1-5,0.5c0,0-3.3,5.8,0.7,5.7C376.8,528.7,379.6,524.9,377.1,522.7"/>
	<path class="st0" d="M396.2,521.6c-0.7-2.2-1.3-3-3.2-2c0,0-4,3-1.5,4C394,524.6,396.8,523.7,396.2,521.6"/>
	<path class="st0" d="M338.2,507.9c0,0-1.3,2.7,1.7,3c3,0.4,3.2-1.7,3-2.7C342.7,507.2,339.7,505.9,338.2,507.9"/>
	<path class="st0" d="M342.9,488.5c0,0-0.8,3.8,2.3,4.8c3.2,1,2.2-2.2,1.9-3C346.8,489.5,342.7,486.5,342.9,488.5"/>
	<path class="st0" d="M359.3,496.4c0,0-2.8,3-1,3.6C360.1,500.7,363.9,497.4,359.3,496.4"/>
	<path class="st0" d="M371.3,488.2c2.7,0.4,4.5-2.9,0.7-3.5C372,484.7,368.6,487.8,371.3,488.2"/>
	<path class="st0" d="M356.5,487.2c0,0-3.7,0.4-1.7,2.4c2,2,2.8,2,3.7-0.5C359.3,486.5,358.8,486.6,356.5,487.2"/>
	<path class="st0" d="M362.8,474.3c0,0-0.8,2.5,1.3,3.8c2.2,1.4,2.2,0.2,2.4-1.3C366.6,475.3,362.8,472.3,362.8,474.3"/>
	<path class="st0" d="M358.6,468.6c0,0,1.8,0.6,3.3-0.5C363.5,466.9,358.1,465.6,358.6,468.6"/>
	<path class="st0" d="M388.7,453.4c1.6-1.5-2-3.2-3-1C385.7,452.4,387,454.9,388.7,453.4"/>
	<path class="st0" d="M485.5,536.3c3.9-1.2,6.6-7.8-0.3-6.1c0,0-3.2,3.2-3.2,4.1C482,535.2,481.6,537.4,485.5,536.3"/>
	<path class="st0" d="M460.5,525.6c0,0-1.1,4,0.5,3.8c1.6-0.2,4.9-1.3,2.9-3.2C461.8,524.2,461.1,524.6,460.5,525.6"/>
	<path class="st0" d="M448.8,520.3c0,0-3.5,1.4-3.6,2.6c-0.1,1.3-0.1,3.9,3.1,1.7C451.6,522.5,453.5,518.3,448.8,520.3"/>
	<path class="st0" d="M435.6,515.7c0,0-4.1,1.1-2.9,2.8c1.3,1.6,4.5,4.3,5.3,1.4C438.8,516.8,437.9,514.3,435.6,515.7"/>
	<path class="st0" d="M464.3,510.3c0,0-3.2,1.4-2.7,2.6c0.6,1.3,2.4,2.7,4,0.9C467.3,512.2,467.4,508.9,464.3,510.3"/>
	<path class="st0" d="M474.4,523.5c2.5-0.7,6.1-7,0.7-6.1c0,0-1.9,0.7-2.9,2.7C471.3,522.3,471.9,524.2,474.4,523.5"/>
	<path class="st0" d="M414.4,471.4c0,0,0.1,4.2,2.9,3.3c2.8-0.8,1.6-3.3,1.6-3.3S413.4,468.2,414.4,471.4"/>
	<path class="st0" d="M414,490.4c-2.5-1.3-2.6-1.7-3.4-0.7c0,0-2.1,4,0.3,4.1C413.2,494,416.5,491.8,414,490.4"/>
	<path class="st0" d="M425.4,478.5c0.4-1.7-8.7,2.1-5.1,3.7c0,0,2.9,1.5,4.4,0.7C426.2,482,425,480.2,425.4,478.5"/>
	<path class="st0" d="M433.9,461c2.4-0.1,2.3-2.4,1.5-3.7c-0.8-1.3-4.8-1.5-4.5,1.2C430.9,458.5,431.5,461.1,433.9,461"/>
	<path class="st0" d="M435,468.5c5.2,3,3.5-5.3,0.9-3.9C436,464.6,432.7,467.1,435,468.5"/>
	<path class="st0" d="M443.1,462.2c5.6,0,2.5-5.6,0.4-4.6c0,0-2.6,2-2.8,2.5C440.5,460.8,438.7,462.2,443.1,462.2"/>
	<path class="st0" d="M436.8,477.7c-0.1,1.2,1.3,1.9,3.6,1.2c2.3-0.7,2.3-3.7-0.5-3.1C439.8,475.8,436.9,476.5,436.8,477.7"/>
	<path class="st0" d="M449.3,474.2c1.2-0.4,0.8-2.8,0.9-4.5c0.1-1.7-0.7-2.6-2.7-1c0,0-1.3,0.2-1.2,2
		C446.5,472.3,448,474.6,449.3,474.2"/>
	<path class="st0" d="M496,445.8c1.9-1.7,3.3-4.8-0.2-5.2c0,0-2.4,0-2.2,2.6C493.6,445.7,494.1,447.6,496,445.8"/>
	<path class="st0" d="M501.7,448.4c0,0,2.5,1.2,4.1,0.9c1.6-0.2,0.8-2.8-0.4-3.4C504.3,445.2,499.6,448,501.7,448.4"/>
	<path class="st0" d="M511,438c4.1,0.8,4.9-4.3,3.1-3.9C514.1,434.1,506.9,437.2,511,438"/>
	<path class="st0" d="M502.5,436.8c2.2-0.1,3.6-0.8,2.3-1.9c-1.3-1.1-3.3-3.2-3.3-2C501.4,432.9,500.4,436.9,502.5,436.8"/>
	<path class="st0" d="M487.9,172.3c-0.3-4.4-1.3-5.3-1.6-4.8c0,0-0.9,11.9,0.2,12.2C487.6,180.1,488.3,176.7,487.9,172.3"/>
	<path class="st0" d="M429.5,199.3c-2.4,0.3-3.2-3.4-3.4-5.8c-0.2-2.4-2.3-3.9-3.4-0.8c0,0,0.4,10.2,5.3,9.8
		c6.1-0.5,7.7-3.6,5.3-11.6c0,0-1.3-2.3-3.2-0.7C428.2,191.8,431.9,198.9,429.5,199.3"/>
	<path class="st0" d="M437,188.2c0,0-1,11.1,3.8,11.3c6.1,0.3,8.1-2.8,6.8-11.8c0,0-1-2.6-3.1-1.1c-2.1,1.5,0.5,9.6-1.9,9.7
		c-2.4,0-2.7-4.1-2.5-6.7C440.4,186.9,438.5,185,437,188.2"/>
	<path class="st0" d="M451.4,184.9c0,0-1.1,11.4,3.4,11.6c5.6,0.2,7.5-3.1,6.5-12.3c0,0-0.8-2.7-2.8-1.1c-2,1.6,0.3,9.9-1.9,10
		c-2.3,0-2.4-4.2-2.2-6.9C454.5,183.5,452.8,181.7,451.4,184.9"/>
	<path class="st0" d="M464.9,178.6l-0.1,9.8c0,0-0.8,6.6,6.3,6.8c7.1,0.1,5.3-9,5.3-12.9c0-3.8-0.5-9.7-2.2-9.3
		c-1.8,0.3-2.3,2.4-2.1,6.6c0.2,4.2,1,9.2-1.3,9c-2.2-0.2-2.1-3.2-2.1-7.4C468.6,177,465.4,174,464.9,178.6"/>
	<path class="st0" d="M484.1,169c0,0-4.2-3.7-4.2,1.9c0,5.7-1.6,21.7,7.7,22.2c9.3,0.5,7.9-11.6,7.9-19.2c0-7.6,1.4-15.6-1.6-13.5
		c-3,2.1-3.4,4.3-3.7,9.8c-0.3,5.5,1.1,14.3-1.6,14.8c-2.7,0.5-4.6-0.5-4.2-8.5C484.7,170.2,484.1,169,484.1,169"/>
	<path class="st0" d="M504.7,174.6c-0.5-8.9,0.1-15.3-1.8-15.3c0,0-3.2-0.3-3.4,4.2c-0.1,4.5-1.9,22.2,4,25c6,2.7,14.2,1.1,14.3-5.4
		c0.2-6.6,0.2-21.3,0.2-25.2c0-3.9-3.9-5.8-4.7-0.3c-0.8,5.5,2.4,26.8-2.6,26.4C505.8,183.6,505.2,183.5,504.7,174.6"/>
	<path class="st0" d="M508.4,160.7c0,0-1.8,15.8,0.5,16.8c2.3,1,1.1-10.8,1.3-14.4C510.3,159.6,508.7,157.8,508.4,160.7"/>
	<path class="st0" d="M485.1,409.3c3.9,0.4,16-26.9,18.9-44.5c3-17.6,4.1-21.6,7.5-29.7c3.4-8,8.2-40.1,8.2-56.3
		c0-16.2,0.9-31,0-33.5c-0.9-2.5-1.8-3.4-4.6-1.4c-2.7,2.1-6.1,0.9-5.7,8.2c0.4,7.3,0.9,52.7-1.6,60c-2.5,7.3-5,18.5-7.1,26
		c-2,7.5-4.6,16-3,0.4c1.6-15.5,4.8-15.9,5-25.3c0.2-9.4,2.5-20.5,2-34c-0.4-13.5,0.7-30.6,0.7-30.6s-6.8-9.1-7.1-0.9
		c-0.2,8.2,0.5,50.6-0.2,56.4c-0.7,5.7-2.5,14.3-1.8,20c0.7,5.7-2,7.5-2.5,16.9c-0.4,9.4-3,44.7-7.6,54.3
		C481.9,405,481.2,408.9,485.1,409.3"/>
	<path class="st0" d="M479,366.7c3-1.8,14.6-29.4,15.3-71.4c0.7-41.9,2.3-46.5,0.4-49.7c-1.8-3.2-5.7-4.1-5,4.5
		c0.7,8.7-1.6,69.1-4.6,69.3c-2.5,2.1,2-51.6,0.9-72.4l-0.2-0.5c0,0-3.7-9.8-3.9-2.3c-0.2,7.5-0.5,40.7-1.4,43.2
		c-0.9,2.5-4.6,16.7-3.4,26.7c1.1,10,2,35.6,0.7,42.2C476.4,363,476,368.5,479,366.7"/>
	<path class="st0" d="M476.2,272.3c0.7-8.9,3-26.6,2.3-31.2c0,0-4.9-1.6-5.3,3.9c-0.3,3.2-0.4,17.3-1.1,22.1
		c-0.7,4.8-0.7,25.5-3.6,25.3c-3-0.2-1.3-10.3-0.4-19.2c0.9-8.9,4.1-17.9,1.8-30.7c0,0-4.2-4.5-4.4-0.4c-0.2,4.1,0.5,14.9-0.8,16.7
		c-1.4,1.8-2.5,7.8-2.3,14.4c0.2,6.6,1.4,17.3-1.1,21.4c-2.5,4.1-1.6,9.4-2.5,14.8c-0.9,5.5-2.3,17.8-7.1,25.6
		c-4.8,7.7,5.5,9.8,15.7-19.4C477.6,286.4,475.5,281.2,476.2,272.3"/>
	<path class="st0" d="M448.9,242.4c0,4.6-0.5,33.9-2.8,39c-2.3,5-3,15.3-4.3,18c-1.4,2.7-6.6,15.7-9.1,19.8
		c-2.5,4.1-2.1,9.1,2.5,5.7c4.6-3.4,18.7-21.6,20.8-37.6c2-15.9,4.6-26.2,5.2-30.6c0.7-4.3,2-15.9,0.6-16.8
		c-1.4-0.9-4.1-1.8-4.1,2.5c0,4.3-1.3,19.4-3.6,26.7c-2.3,7.3-2.5,10-2.7,0.9c-0.2-9.1,1.7-27.1,0.5-31.4
		C451.9,238.6,448.9,237.9,448.9,242.4"/>
	<path class="st0" d="M433.8,237.6c0,0-0.5,4.1-0.5,16.9c0,16-8.2,31.9-12.8,41.9c-4.6,10.1,1.6,7.3,5.3,4.1
		c3.6-3.2,10.5-15.3,13.9-22.3c3.4-7.1,6.7-40.1,6.7-40.1c-0.5-1.2-3.7-2.1-4.8-0.2c-1.1,1.8-2.5,2.5-3.4,0.4
		C437.3,236.3,433.8,237.6,433.8,237.6"/>
	<path class="st0" d="M427.9,268.6c2.1-5.5,2.8-29.9,2.8-29.9c0-3.9-1.8-6.4-2.3,0.5c-0.5,6.9-2.6,3.8-3.7-2.1
		c-1.1-6-3.3,11.5-2.4,17.4c0.9,5.9-5.1,21.9-7.4,32.1C412.6,296.9,425.8,274.1,427.9,268.6"/>
	<path class="st0" d="M430.6,210.1c-0.9,7.8,0.4,11-2.2,10c-2.6-0.9,0-12.8-2-12.8c-2,0-1.7,4.7-2,7.9c-0.4,3.4-0.9,12.7,3.9,12.7
		c8.2,0,6.3-15.4,6.3-18.2C434.5,206.9,431.6,202.3,430.6,210.1"/>
	<path class="st0" d="M447,205.1c-2.1,0-3,0.6-2.8,5c0.2,4.4,0.7,8.9-1.5,8.4c-2.2-0.6-1.5-5.5-1.3-9.7c0.2-4.1-1.5-3.9-1.5-3.9
		s-2.1-0.6-2.1,3.7c0,4.3-0.9,18.6,3.5,18.9c4.5,0.4,6.9-3.6,7.2-13C449,205.1,449,205.1,447,205.1"/>
	<path class="st0" d="M456.2,230.7c7.6,0.8,6.2-12.8,6.4-16.2c0.2-3.3,0.9-11.1-1-11.3c-1.9-0.2-1.7,2-1.7,5.7
		c0,3.7-0.3,12.4-2.6,12.6c-2.2,0.2-2.8-4.3-2.2-10.6c0.6-6.3,0.6-7.2-0.6-7.4c0,0-2.8,0-2.8,5C451.8,213.6,448.7,229.9,456.2,230.7
		"/>
	<path class="st0" d="M477.8,201.9c-2.2-0.6-3.7,0-3.7,4.5c0,4.5,0.6,18.2-2,18.2c-2.6,0-3.3-3.9-3.3-10.9c0-7.1,1.9-11.1,0.6-11.5
		c0,0-3.7-2-3.9,4.9c-0.2,6.9-1.3,25.4,4.3,26.3c5.6,1,9.1-6.1,8.5-14.7C477.6,210.1,480,202.5,477.8,201.9"/>
	<path class="st0" d="M485.2,200.3c0,0-3-0.4-3.3,5.2c-0.4,5.6,0.4,16,0.4,21c0,5,0.6,9.5,5.4,10c4.8,0.6,8.4-7.2,8.4-15.6
		c0-8.3,2-21.3-1.1-21.9c-3.1-0.5-2.4,2.4-2.2,5.6c0.2,3.1,0,23.7-3.7,23.2c-3.7-0.6-4.3-9.3-3.1-18.4
		C487.1,198.8,485.2,200.3,485.2,200.3"/>
	<path class="st0" d="M488.9,203.6c0,0-1.3-0.9-1.3,4.5c0,5.4-1.3,14.3,0.7,14.5c2,0.2,0.5-4.8,1.3-9.6
		C490.4,208,490.4,203.6,488.9,203.6"/>
	<path class="st0" d="M519,196.4c-2.8-0.4-3.9-0.9-4.1,5c-0.2,5.9-0.5,23.8-0.5,23.8s0.5,7-4.3,7c-4.8,0-4.8-3-4.8-9.5
		c0-6.5,1.7-23.8-2.4-24.3c0,0-3.1-0.2-3.3,5.7c-0.2,5.9,0.2,22.6,0.2,25.6c0,3,1.3,10,9.3,11.1c8,1.1,10.4-10.4,10.6-21.7
		C519.7,207.9,521.8,196.7,519,196.4"/>
	<path class="st0" d="M510.1,202.5c0,0-2-0.8-2.2,4.3c-0.2,5-1.1,20.4,0.8,20.4c1.8,0,2.1-0.9,2-5.2
		C510.3,209.5,511.7,202.7,510.1,202.5"/>
	<path class="st0" d="M420.4,58.8l2.6-18.4c0.4-2.7-0.2-4.5-3.6-5l-4.3-0.6l-3.8,27.2l4.3,0.6C418.9,63.1,420,61.5,420.4,58.8
		 M414.1,60.3l1.4-10l2.6,0.3l0.4-2.5l-2.6-0.4l1.4-10.4l1.3,0.2c1.6,0.2,2.1,0.8,1.9,2.4l-2.6,18.7c-0.2,1.6-0.8,2-2.5,1.8
		L414.1,60.3z"/>
	<path class="st0" d="M203.7,194.8c0,0-3.7,0.3-3.7-3.4v-3.5h7.3c3,0,5.4-2.2,5.4-5c0-2.7-2.5-5-5.4-5H200h-2.8h-3.5v2.5
		c0,0,2-0.6,2,2v10.5c0,0-0.4,1.8-2.3,1.8v1.9h10.2L203.7,194.8z M204.9,179.7c1.4,0,2.6,1.2,2.6,2.6c0,1.4-1.2,2.6-2.6,2.6H200
		v-5.2H204.9z"/>
	<path class="st0" d="M175.2,309.4h10.5c0,0,1.8,0.4,1.8,2.4h1.9v-10.3l-1.8-0.1c0,0,0.3,3.7-3.4,3.7h-3.4v-7.2c0-3-2.3-5.5-5-5.5
		c-2.8,0-5.1,2.4-5.1,5.5v7.2v2.8v3.5h2.5C173.2,311.4,172.7,309.4,175.2,309.4 M172.6,300.2c0-1.4,1.2-2.6,2.6-2.6
		c1.5,0,2.6,1.2,2.6,2.6v4.9h-5.3V300.2z"/>
	<path class="st0" d="M355.1,391.6c0,0-0.9,2.1-2.9,0.6c-2.1-1.5-8.5-6.2-8.5-6.2s-1.2-1.4,0.1-3.2l-1.6-1.1l-6.7,9.2l-2.3,3.3
		c-2,2.7-1.6,6.3,0.7,8c1.7,1.2,3.8,1.2,5.7,0.2c0.1,1.4,0.7,2.7,1.9,3.6c2.3,1.7,5.5,0.9,7.3-1.5l4.2-5.8l0.6-0.9l1.2-1.6l2.3-3.2
		L355.1,391.6z M337.7,397.9c-1.2-0.9-1.5-2.6-0.6-3.9l2.8-3.9c0.6,0,1.3,0.2,2.1,0.7c0.7,0.5,1.7,1.2,2.8,2l-3.3,4.5
		C340.7,398.5,339,398.8,337.7,397.9 M348.7,401.5c-0.8,1.2-2.5,1.4-3.6,0.6c-1.2-0.9-1.5-2.5-0.6-3.6l2.8-3.8
		c1.6,1.1,3.1,2.3,4.2,3.1L348.7,401.5z"/>
	<path class="st0" d="M229.6,177.7c-5.8,0-10.5,4.4-10.5,9.8c0,5.4,4.7,9.8,10.5,9.8c5.8,0,10.5-4.4,10.5-9.8
		C240.1,182.1,235.4,177.7,229.6,177.7 M229.6,194.4c-1.8,0-4.3-3.4-4.3-6.9c0-3.5,2.6-6.9,4.3-6.9c1.8,0,4.3,3.4,4.3,6.9
		C233.9,191,231.3,194.4,229.6,194.4"/>
	<path class="st0" d="M258.2,194.8c0,0-3.7,0.3-3.7-3.4v-3.5h3.2l5.4,8.7c0,0,3.5,0.7,6.1-2.3l-0.8-1.3c0,0-2.4,1.6-3.4-0.4
		c-0.8-1.4-2.2-3.8-2.8-4.9c2.9-0.1,5.2-2.3,5.2-5c0-2.7-2.4-5-5.4-5h-7.3h-2.8h-3.5v2.5c0,0,2-0.6,2,2v10.5c0,0-0.4,1.8-2.4,1.8
		v1.9h10.3L258.2,194.8z M259.4,179.7c1.4,0,2.6,1.2,2.6,2.6c0,1.4-1.2,2.6-2.6,2.6h-4.9v-5.2H259.4z"/>
	<path class="st0" d="M175,272.7h10.5c0,0,1.8,0.4,1.8,2.3h1.9v-10.3l-1.8-0.1c0,0,0.3,3.7-3.4,3.7h-3.5v-3.2l8.7-5.4
		c0,0,0.7-3.5-2.3-6.1l-1.3,0.8c0,0,1.6,2.3-0.3,3.4c-1.5,0.8-3.8,2.2-4.9,2.9c-0.1-2.9-2.3-5.2-5-5.2c-2.8,0-5,2.4-5,5.5v7.3v2.8
		v3.5h2.5C173,274.7,172.5,272.7,175,272.7 M172.4,263.5c0-1.4,1.2-2.6,2.6-2.6c1.4,0,2.6,1.1,2.6,2.6v4.9h-5.2V263.5z"/>
	<path class="st0" d="M273.3,435.4c0,0,3.7,0.7,2.7,4.3c-0.2,0.8-0.6,2-0.9,3.3l-3.1-0.9l-2.8-9.8c0,0-3.2-1.7-6.5,0.5l0.5,1.5
		c0,0,2.7-0.9,3.2,1.3c0.4,1.6,1.1,4.2,1.4,5.5c-2.8-0.7-5.6,0.8-6.3,3.4c-0.8,2.7,0.9,5.5,3.9,6.3l9.7,2.8l3.4,0.9l0.7-2.4
		c0,0-2.1,0-1.4-2.5c0.7-2.5,2.9-10.1,2.9-10.1s0.9-1.6,2.7-1.1l0.5-1.8l-9.9-2.8L273.3,435.4z M266.3,446.3
		c0.4-1.4,1.8-2.2,3.2-1.8l4.7,1.4c-0.5,1.9-1.1,3.7-1.4,5l-4.7-1.4C266.7,449.2,265.9,447.8,266.3,446.3"/>
	<path class="st0" d="M384.3,200.7c0,0,0.5,2-2,2h-10.5c0,0-1.8-0.4-1.8-2.3h-1.9v10.3l1.8,0.1c0,0-0.3-3.7,3.4-3.7h3.5v3.2
		l-8.7,5.4c0,0-0.7,3.6,2.2,6.1l1.3-0.9c0,0-1.6-2.3,0.3-3.4c1.4-0.8,3.8-2.2,4.9-2.9c0.1,2.9,2.3,5.2,5,5.2c2.8,0,5-2.4,5-5.5V207
		v-2.8v-3.5H384.3z M384.9,211.9c0,1.4-1.2,2.6-2.6,2.6c-1.4,0-2.6-1.1-2.6-2.6V207h5.2V211.9z"/>
	<polygon class="st0" points="308.7,195.1 306.1,195.1 313.1,184.7 323.2,196.6 332.1,187.2 337.5,195.1 334.2,195.1 334.2,196.7 
		347.1,196.7 347.1,195.1 345.4,195.1 336.7,182.2 336.8,182.2 336.8,178.3 332.6,178.3 332.6,181.1 325.4,188.7 317,178.3 
		307.8,178.3 307.8,181.3 310.2,181.3 310.2,181.4 301,195.1 299.1,195.1 299.1,196.7 308.7,196.7 	"/>
	<polygon class="st0" points="363.5,193.8 362,193.8 362,181.3 363.5,181.3 363.5,178.4 354.7,178.4 354.7,181.3 356.2,181.3 
		356.2,193.8 354.7,193.8 354.7,196.7 363.5,196.7 	"/>
	<polygon class="st0" points="173.5,248.3 186.1,248.3 186.1,249.8 189,249.8 189,241 186.1,241 186.1,242.5 173.5,242.5 173.5,241 
		170.7,241 170.7,249.8 173.5,249.8 	"/>
	<polygon class="st0" points="173.5,213 189.6,202.7 173.5,190.1 173.5,186.7 170.8,186.7 170.8,195.9 173.5,195.9 173.5,193.2 
		182.5,200.2 173.5,206 173.5,205.4 170.8,205.4 170.8,215.6 173.5,215.6 	"/>
	<polygon class="st0" points="172.5,236.9 176.2,236.9 176.2,235.2 174.5,235.2 174.5,230.1 186.2,230.1 186.2,233.3 189,233.3 
		189,220.9 186.2,220.9 186.2,224.1 174.5,224.1 174.5,219 176.2,219 176.2,217.3 174.5,217.3 170.7,217.3 170.7,236.9 	"/>
	<polygon class="st0" points="173.5,288.3 186.1,288.3 186.1,289.8 189,289.8 189,281.1 186.1,281.1 186.1,282.6 173.5,282.6 
		173.5,281.1 170.7,281.1 170.7,289.8 173.5,289.8 	"/>
	<path class="st0" d="M336.5,414.5c-0.2,0.1-1-0.5-1.3-0.9l-7.7-8.1c-0.3-0.3-0.4-0.6-0.3-0.8c0.1-0.2,0.6-0.7,1.5-1.6l-1.6-1.7
		l-14,13.1l2.3,4.7l1.7-1.6c-0.4-0.8,0-2.7-0.1-2.9c0-0.3,0.1-0.6,0.5-1l5.7-5.4l8.1,8.6c0.3,0.4,0.9,1.1,0.9,1.2
		c0,0.1-2.1,2.2-3.1,3.1l1.7,1.8l8.8-8.3l-1.7-1.8C337.2,413.9,336.6,414.4,336.5,414.5"/>
	<path class="st0" d="M205.6,392.1l9.5-6c0.3-0.2,0.6-0.3,0.8-0.2c0.2,0.1,0.6,0.7,1.3,1.8l1.9-1.2l-10.2-16.2l-5.1,1.4l1.3,2
		c0.8-0.3,2.7,0.5,2.8,0.5c0.4,0,0.6,0.3,0.9,0.7l4.2,6.6l-10,6.3c-0.4,0.2-1.2,0.7-1.4,0.6c-0.1-0.1-1.7-2.5-2.5-3.6l-2.1,1.3
		l6.5,10.2l2.1-1.3c-0.6-1-1-1.6-1-1.8C204.5,392.9,205.2,392.3,205.6,392.1"/>
	<path class="st0" d="M215.7,391.4l1.7,2.1c0.9-0.4,1.4-0.6,1.5-0.7c0.4-0.2,0.7-0.3,0.8-0.3c0.3,0,1.3,1.1,1.6,1.4l3.4,4.3
		l-4.8,3.8l-4.5-5.6l-2.1,1.7l4.5,5.7l-3.8,3l-3.9-4.8c-0.1-0.1-0.2-0.2-0.2-0.3c-0.1-0.2-0.1-0.4,0.1-0.7c0-0.1,0.1-0.3,0.4-0.6
		l0.9-1.2l-1.6-2.1l-3.1,4.1l10.3,12.8l1.7-1.4c-0.4-0.5-0.7-0.9-0.8-1.1c-0.2-0.3-0.3-0.6-0.3-0.7c0-0.2,0.2-0.3,0.5-0.5l9.6-7.7
		c0.4-0.3,0.6-0.4,0.8-0.3c0.2,0.1,0.6,0.6,1.3,1.4l1.7-1.4l-10.7-13.3L215.7,391.4z"/>
	<path class="st0" d="M185.5,354.4l11.7-3.9c0.4-0.1,0.7-0.1,0.8,0c0.1,0.1,0.4,0.7,0.7,1.8l2.1-0.7l-5.4-16.2l-5.3,0.4l0.8,2.5
		c1-0.1,1.5-0.1,1.7-0.1c0.5,0,0.8,0,0.9,0c0.2,0.1,0.8,1.5,1,1.9l1.7,5.2l-5.8,1.9l-2.3-6.8l-2.5,0.9l2.3,6.8l-4.6,1.5l-2-5.9
		c0-0.1-0.1-0.2-0.1-0.3c0-0.2,0-0.4,0.2-0.6c0.1-0.1,0.2-0.2,0.5-0.4l1.3-0.8l-0.8-2.5l-4.4,2.8l5.2,15.5l2.1-0.7
		c-0.2-0.7-0.4-1.1-0.4-1.3c-0.1-0.4-0.2-0.6-0.1-0.7C184.9,354.6,185.1,354.5,185.5,354.4"/>
	<path class="st0" d="M179.7,334.7c2.2-0.2,3.8-2.3,4.8-6.2c0.3-1.3,0.5-2.5,0.8-3.8c0.4-1.7,0.7-2.8,1.1-3.4
		c0.2-0.5,1.1-0.7,1.5-0.8c0.5-0.1,0.9,0.2,1.2,0.8c0.3,0.5,0.5,1.3,0.6,2.2c0.1,1.4,0.1,3.5-0.2,4.1c-0.5,1-2.1,1.9-3.7,2.8
		l1.2,3.4c1.9-1,3.7-1.7,5.2-2.1c0.5-3.2,0.7-4.4,0.5-7.3c-0.4-4-1.2-5.7-2.7-7.7c-1.3-1.8-2.8-2.6-4.4-2.4c-1.4,0.1-2.4,0.7-3.3,2
		c-0.7,1-1.2,3.1-1.7,5.1c-0.1,0.4-0.3,1.2-0.8,3.7c-0.4,1.7-0.7,2.8-1,3.4c-0.2,0.4-0.4,0.5-0.7,0.5c-0.7,0.1-1.7-0.8-1.9-2.6
		c-0.1-1.3-0.4-6.2-0.1-6.6c0.4-0.6,1.9-1.3,3.4-1.9l-0.9-2.9c-2.1,0.8-3.8,1.5-5.2,1.8c-0.5,2.8-0.7,4.3-0.4,7.1
		c0.3,3.4,1,6,2.1,7.9C176.5,333.9,178,334.9,179.7,334.7"/>
	<path class="st0" d="M381.5,257.7c0.9,0.3,0.4,0.3,0.6,0.4c0.5,0.2,0.8,0.4,0.9,0.5c0.1,0.2,0.2,0.5,0.2,1.1v6.8L370,254.8
		c0,0-1.9-2.3-1.9,1.5v18.2l5.1,1.5v-3.5c-1.4-0.4-0.9-0.8-1.2-1.1c-0.3-0.2-0.4-0.7-0.4-1.5v-5.6l13.3,11.4c0,0,1.8,1.3,1.8-1.8
		v-18.3l-5.1-1.3V257.7z"/>
	<path class="st0" d="M371.3,225c0-0.2-0.1-0.7-0.1-1.7h-3.2v7.7h3.2v-1.5v-0.1l3.1,1.6v8.2c-2.6,1.5-3.2,1.8-3.2,1.8
		s0.1-3.2,0.1-3.3h-3.2v12.4h3.2c0-0.9,0-1.5,0.1-1.8c0.1-0.2,0.3-0.5,0.8-0.8l14.6-8.8v-5.3l-14.9-8
		C371.6,225.4,371.4,225.3,371.3,225 M377,233.1l4.1,2.1l-4.1,2.4V233.1z"/>
	<path class="st0" d="M371.1,280.8c0-0.2-0.1-0.7-0.1-1.7h-3.2v7.7h3.2v-1.6v-0.1l3.1,1.6v8.2c-2.6,1.5-3.2,1.8-3.2,1.8
		s0.1-3.2,0.1-3.3h-3.2v12.4h3.2c0-0.9,0-1.5,0.1-1.8c0.1-0.3,0.3-0.5,0.8-0.7l14.6-8.7v-5.3l-14.9-8
		C371.4,281.2,371.2,281.1,371.1,280.8 M376.8,288.9l4.1,2l-4.1,2.4V288.9z"/>
	<path class="st0" d="M311.3,420.9l-1.7-2.7l-6.5,4.1l1.7,2.7c0.8-0.5,1.2-0.7,1.3-0.8c0,0,0,0,0.1,0l0.3,3.5l-6.9,4.4
		c-2.6-1.4-3.2-1.8-3.2-1.8s2.7-1.6,2.8-1.7l-1.7-2.7l-10.5,6.6l1.7,2.7c0.8-0.5,1.3-0.8,1.5-0.9c0.2,0,0.6,0,1.1,0.3l15.1,7.7
		l4.5-2.8l-1.2-16.9c0-0.3,0-0.5,0.2-0.7C310,421.7,310.5,421.4,311.3,420.9 M302.4,433.3l3.8-2.4l0.4,4.6L302.4,433.3z"/>
	<path class="st0" d="M256.2,423.9l-1.9,2.6c0.7,0.5,1.1,0.9,1.3,0.9c0,0,0,0,0,0l-3.2,1.6l-6.6-4.8c0.3-3,0.4-3.6,0.4-3.6
		s2.5,1.9,2.7,1.9l1.8-2.6l-10.1-7.2l-1.8,2.6c0.7,0.5,1.2,0.9,1.3,1.1c0.1,0.2,0.2,0.6,0.2,1.1l-1.4,16.9l4.3,3.1l15.1-7.5
		c0.3-0.1,0.5-0.2,0.7-0.1c0.2,0.1,0.7,0.4,1.4,0.9l1.9-2.6L256.2,423.9z M245.3,432.2l0.4-4.7l3.6,2.6L245.3,432.2z"/>
	<path class="st0" d="M358.3,356.7c0-0.2,0.3-0.7,0.6-1.5l-2.9-1.3l-3.1,7l2.9,1.3c0.4-0.8,0.6-1.3,0.6-1.4c0-0.1,0-0.1,0.1-0.1
		l2.2,2.8l-3.3,7.4c-3,0.3-3.6,0.3-3.6,0.3s1.3-2.9,1.4-3l-2.9-1.3l-5,11.3l2.9,1.3c0.3-0.8,0.6-1.4,0.8-1.5c0.2-0.2,0.5-0.3,1-0.3
		l16.9-2.1l2.2-4.9l-10.4-13.3C358.3,357.2,358.2,356.9,358.3,356.7 M363.1,370l-4.7,0.5l1.8-4.1L363.1,370z"/>
	<path class="st0" d="M379.7,330.4c-0.1,0.4-0.2,0.6-0.3,0.6c-0.1,0.1-1-0.1-1.4-0.2l-10.9-2.9c-0.4-0.1-0.7-0.3-0.7-0.4
		c0-0.1,0.1-0.8,0.4-1.9l-2.3-0.6l-2.5,9.2l2.3,0.6c0.2-0.6,0.3-1,0.3-1.1c0.1-0.3,0.2-0.5,0.3-0.6c0.1,0,0.3,0,0.6,0.1l4.6,1.2
		l-2.1,8.1l-4.6-1.2c-0.4-0.1-0.6-0.3-0.6-0.4c0-0.2,0.1-0.7,0.3-1.6l-2.2-0.6l-2.5,9.2l2.2,0.6c0.2-0.7,0.3-1.1,0.4-1.3
		c0.1-0.4,0.2-0.6,0.3-0.6c0.1,0,0.3,0,0.7,0.1l10.9,2.9c0.4,0.1,1.3,0.4,1.4,0.6c0,0.2-0.1,0.8-0.4,1.9l2.5,0.6l2.5-9.2l-2.5-0.6
		c-0.2,0.6-0.3,1-0.3,1.1c-0.1,0.3-0.2,0.5-0.3,0.5c-0.1,0-1-0.1-1.3-0.2l-3.7-0.9l2.2-8.1l3.7,0.9c0.4,0.1,1.3,0.4,1.3,0.6
		c0,0.1-0.1,0.7-0.3,1.6l2.4,0.6l2.5-9.3l-2.5-0.6C380,329.8,379.8,330.2,379.7,330.4"/>
</g>
</svg>
